<svg xmlns="http://www.w3.org/2000/svg" xmlns:xlink="http://www.w3.org/1999/xlink" contentStyleType="text/css" data-diagram-type="ACTIVITY" height="597px" preserveAspectRatio="none" style="width:553px;height:597px;background:#FFFFFF;" version="1.1" viewBox="0 0 553 597" width="553px" zoomAndPan="magnify"><?plantuml 1.2026.6?><defs/><g><g class="title" data-source-line="2"><text fill="#000000" font-family="sans-serif" font-size="14" font-weight="700" lengthAdjust="spacing" textLength="266.3965" x="142.3936" y="33.5352">Group Project &#8212; Automatic Matching</text></g><rect fill="none" height="21.1992" style="stroke:none;stroke-width:1;" width="506.1836" x="20" y="54.7852"/><ellipse cx="152.0117" cy="90.9844" fill="#222222" rx="10" ry="10" style="stroke:#222222;stroke-width:1;"/><rect fill="#F8F8FF" height="34.1328" rx="12.5" ry="12.5" style="stroke:#708090;stroke-width:0.5;" width="187.3301" x="58.3467" y="120.9844"/><path d="M69.6867,134.1172 A0.5,0.5 0 0 0 69.3467,134.6172 L69.3467,141.6172 A0.5,0.5 0 0 0 69.8467,142.1172 L76.8467,142.1172 A0.5,0.5 0 0 0 77.3467,141.6172 L77.3467,134.6172 A0.5,0.5 0 0 0 76.8467,134.1172 L69.8467,134.1172 A0.5,0.5 0 0 0 69.7567,134.1172 A0.5,0.5 0 0 0 69.6967,134.1172 M70.8467,135.1172 C71.1267,135.1172 71.3467,135.3372 71.3467,135.6172 C71.3467,135.8972 71.1267,136.1172 70.8467,136.1172 C70.5667,136.1172 70.3467,135.8972 70.3467,135.6172 C70.3467,135.3372 70.5667,135.1172 70.8467,135.1172 M72.8467,135.1172 L75.8467,135.1172 C76.1267,135.1172 76.3467,135.3372 76.3467,135.6172 C76.3467,135.8972 76.1267,136.1172 75.8467,136.1172 L72.8467,136.1172 C72.5667,136.1172 72.3467,135.8972 72.3467,135.6172 C72.3467,135.3372 72.5667,135.1172 72.8467,135.1172 M70.3467,137.1172 L76.3467,137.1172 L76.3467,141.1172 L70.3467,141.1172 L70.3467,137.1172" fill="#000000"/><text fill="#000000" font-family="sans-serif" font-size="12" lengthAdjust="spacing" textLength="153.5332" x="82.1436" y="142.5859">Open page &#8220;Matching run&#8221;</text><rect fill="#F8F8FF" height="34.1328" rx="12.5" ry="12.5" style="stroke:#708090;stroke-width:0.5;" width="252.0234" x="26" y="175.1172"/><path d="M37.34,188.25 A0.5,0.5 0 0 0 37,188.75 L37,195.75 A0.5,0.5 0 0 0 37.5,196.25 L44.5,196.25 A0.5,0.5 0 0 0 45,195.75 L45,188.75 A0.5,0.5 0 0 0 44.5,188.25 L37.5,188.25 A0.5,0.5 0 0 0 37.41,188.25 A0.5,0.5 0 0 0 37.35,188.25 M38.5,189.25 C38.78,189.25 39,189.47 39,189.75 C39,190.03 38.78,190.25 38.5,190.25 C38.22,190.25 38,190.03 38,189.75 C38,189.47 38.22,189.25 38.5,189.25 M40.5,189.25 L43.5,189.25 C43.78,189.25 44,189.47 44,189.75 C44,190.03 43.78,190.25 43.5,190.25 L40.5,190.25 C40.22,190.25 40,190.03 40,189.75 C40,189.47 40.22,189.25 40.5,189.25 M38,191.25 L44,191.25 L44,195.25 L38,195.25 L38,191.25" fill="#000000"/><text fill="#000000" font-family="sans-serif" font-size="12" lengthAdjust="spacing" textLength="218.2266" x="49.7969" y="196.7188">Open page &#8220;Saved matching settings&#8221;</text><rect fill="#AFEEEE" height="34.1328" rx="12.5" ry="12.5" style="stroke:#708090;stroke-width:0.5;" width="208.0898" x="47.9668" y="229.25"/><path d="M62.9668,242.3828 C60.7668,242.3828 58.9668,244.1828 58.9668,246.3828 C58.9668,248.5828 60.7668,250.3828 62.9668,250.3828 C65.1668,250.3828 66.9668,248.5828 66.9668,246.3828 C66.9668,244.1828 65.1668,242.3828 62.9668,242.3828 M62.9668,243.3828 C64.6268,243.3828 65.9668,244.7228 65.9668,246.3828 C65.9668,248.0428 64.6268,249.3828 62.9668,249.3828 C61.3068,249.3828 59.9668,248.0428 59.9668,246.3828 C59.9668,244.7228 61.3068,243.3828 62.9668,243.3828 M62.9668,244.3828 C61.8668,244.3828 60.9668,245.2828 60.9668,246.3828 C60.9668,247.4828 61.8668,248.3828 62.9668,248.3828 C64.0668,248.3828 64.9668,247.4828 64.9668,246.3828 C64.9668,245.2828 64.0668,244.3828 62.9668,244.3828 M62.9668,245.3828 C63.5268,245.3828 63.9668,245.8228 63.9668,246.3828 C63.9668,246.9428 63.5268,247.3828 62.9668,247.3828 C62.4068,247.3828 61.9668,246.9428 61.9668,246.3828 C61.9668,245.8228 62.4068,245.3828 62.9668,245.3828" fill="#000000"/><text fill="#000000" font-family="sans-serif" font-size="12" lengthAdjust="spacing" textLength="174.293" x="71.7637" y="250.8516">Click Generate draft matching</text><line style="stroke:#000000;stroke-width:1.5;" x1="20" x2="20" y1="54.7852" y2="576.0469"/><rect fill="#F0FFF0" height="34.1328" rx="12.5" ry="12.5" style="stroke:#708090;stroke-width:0.5;" width="232.3125" x="288.0234" y="283.3828"/><path d="M302.5234,296.5156 L302.0234,297.7056 C301.9234,297.7356 301.8334,297.7856 301.7434,297.8356 L300.5534,297.3356 L299.8334,298.0556 L300.3334,299.2456 C300.2834,299.3456 300.2434,299.4256 300.2034,299.5256 L299.0134,300.0256 L299.0134,301.0256 L300.2034,301.5256 C300.2434,301.6256 300.2834,301.7056 300.3334,301.8056 L299.8334,302.9956 L300.5534,303.7156 L301.7434,303.2156 C301.8334,303.2556 301.9234,303.3056 302.0234,303.3456 L302.5234,304.5356 L303.5234,304.5356 L304.0234,303.3456 C304.1134,303.3056 304.2134,303.2656 304.3034,303.2156 L305.4934,303.7156 L306.2134,302.9956 L305.7134,301.8056 C305.7534,301.7156 305.8034,301.6156 305.8434,301.5256 L307.0334,301.0256 L307.0334,300.0256 L305.8434,299.5256 C305.8134,299.4356 305.7634,299.3356 305.7134,299.2456 L306.2134,298.0556 L305.4934,297.3356 L304.3034,297.8356 C304.2134,297.7956 304.1134,297.7456 304.0234,297.7056 L303.5234,296.5156 L302.5234,296.5156 M303.0234,299.0156 C303.8534,299.0156 304.5234,299.6856 304.5234,300.5156 C304.5234,301.3456 303.8534,302.0156 303.0234,302.0156 C302.1934,302.0156 301.5234,301.3456 301.5234,300.5156 C301.5234,299.6856 302.1934,299.0156 303.0234,299.0156" fill="#000000"/><text fill="#000000" font-family="sans-serif" font-size="12" lengthAdjust="spacing" textLength="198.5156" x="311.8203" y="304.9844">Read submitted preference orders</text><rect fill="#F0FFF0" height="34.1328" rx="12.5" ry="12.5" style="stroke:#708090;stroke-width:0.5;" width="226.4004" x="290.9795" y="337.5156"/><path d="M305.4795,350.6484 L304.9795,351.8384 C304.8795,351.8684 304.7895,351.9184 304.6995,351.9684 L303.5095,351.4684 L302.7895,352.1884 L303.2895,353.3784 C303.2395,353.4784 303.1995,353.5584 303.1595,353.6584 L301.9695,354.1584 L301.9695,355.1584 L303.1595,355.6584 C303.1995,355.7584 303.2395,355.8384 303.2895,355.9384 L302.7895,357.1284 L303.5095,357.8484 L304.6995,357.3484 C304.7895,357.3884 304.8795,357.4384 304.9795,357.4784 L305.4795,358.6684 L306.4795,358.6684 L306.9795,357.4784 C307.0695,357.4384 307.1695,357.3984 307.2595,357.3484 L308.4495,357.8484 L309.1695,357.1284 L308.6695,355.9384 C308.7095,355.8484 308.7595,355.7484 308.7995,355.6584 L309.9895,355.1584 L309.9895,354.1584 L308.7995,353.6584 C308.7695,353.5684 308.7195,353.4684 308.6695,353.3784 L309.1695,352.1884 L308.4495,351.4684 L307.2595,351.9684 C307.1695,351.9284 307.0695,351.8784 306.9795,351.8384 L306.4795,350.6484 L305.4795,350.6484 M305.9795,353.1484 C306.8095,353.1484 307.4795,353.8184 307.4795,354.6484 C307.4795,355.4784 306.8095,356.1484 305.9795,356.1484 C305.1495,356.1484 304.4795,355.4784 304.4795,354.6484 C304.4795,353.8184 305.1495,353.1484 305.9795,353.1484" fill="#000000"/><text fill="#000000" font-family="sans-serif" font-size="12" lengthAdjust="spacing" textLength="192.6035" x="314.7764" y="359.1172">Read project capacity constraints</text><rect fill="#F0FFF0" height="34.1328" rx="12.5" ry="12.5" style="stroke:#708090;stroke-width:0.5;" width="226.2773" x="291.041" y="391.6484"/><path d="M305.541,404.7813 L305.041,405.9713 C304.941,406.0013 304.851,406.0513 304.761,406.1013 L303.571,405.6013 L302.851,406.3213 L303.351,407.5113 C303.301,407.6113 303.261,407.6913 303.221,407.7913 L302.031,408.2913 L302.031,409.2913 L303.221,409.7913 C303.261,409.8913 303.301,409.9713 303.351,410.0713 L302.851,411.2613 L303.571,411.9813 L304.761,411.4813 C304.851,411.5213 304.941,411.5713 305.041,411.6113 L305.541,412.8013 L306.541,412.8013 L307.041,411.6113 C307.131,411.5713 307.231,411.5313 307.321,411.4813 L308.511,411.9813 L309.231,411.2613 L308.731,410.0713 C308.771,409.9813 308.821,409.8813 308.861,409.7913 L310.051,409.2913 L310.051,408.2913 L308.861,407.7913 C308.831,407.7013 308.781,407.6013 308.731,407.5113 L309.231,406.3213 L308.511,405.6013 L307.321,406.1013 C307.231,406.0613 307.131,406.0113 307.041,405.9713 L306.541,404.7813 L305.541,404.7813 M306.041,407.2813 C306.871,407.2813 307.541,407.9513 307.541,408.7813 C307.541,409.6113 306.871,410.2813 306.041,410.2813 C305.211,410.2813 304.541,409.6113 304.541,408.7813 C304.541,407.9513 305.211,407.2813 306.041,407.2813" fill="#000000"/><text fill="#000000" font-family="sans-serif" font-size="12" lengthAdjust="spacing" textLength="192.4805" x="314.8379" y="413.25">Run selected matching algorithm</text><rect fill="#F0FFF0" height="34.1328" rx="12.5" ry="12.5" style="stroke:#708090;stroke-width:0.5;" width="195.9844" x="306.1875" y="445.7813"/><path d="M320.6875,458.9141 L320.1875,460.1041 C320.0875,460.1341 319.9975,460.1841 319.9075,460.2341 L318.7175,459.7341 L317.9975,460.4541 L318.4975,461.6441 C318.4475,461.7441 318.4075,461.8241 318.3675,461.9241 L317.1775,462.4241 L317.1775,463.4241 L318.3675,463.9241 C318.4075,464.0241 318.4475,464.1041 318.4975,464.2041 L317.9975,465.3941 L318.7175,466.1141 L319.9075,465.6141 C319.9975,465.6541 320.0875,465.7041 320.1875,465.7441 L320.6875,466.9341 L321.6875,466.9341 L322.1875,465.7441 C322.2775,465.7041 322.3775,465.6641 322.4675,465.6141 L323.6575,466.1141 L324.3775,465.3941 L323.8775,464.2041 C323.9175,464.1141 323.9675,464.0141 324.0075,463.9241 L325.1975,463.4241 L325.1975,462.4241 L324.0075,461.9241 C323.9775,461.8341 323.9275,461.7341 323.8775,461.6441 L324.3775,460.4541 L323.6575,459.7341 L322.4675,460.2341 C322.3775,460.1941 322.2775,460.1441 322.1875,460.1041 L321.6875,458.9141 L320.6875,458.9141 M321.1875,461.4141 C322.0175,461.4141 322.6875,462.0841 322.6875,462.9141 C322.6875,463.7441 322.0175,464.4141 321.1875,464.4141 C320.3575,464.4141 319.6875,463.7441 319.6875,462.9141 C319.6875,462.0841 320.3575,461.4141 321.1875,461.4141" fill="#000000"/><text fill="#000000" font-family="sans-serif" font-size="12" lengthAdjust="spacing" textLength="162.1875" x="329.9844" y="467.3828">Create draft student groups</text><rect fill="#F0FFF0" height="34.1328" rx="12.5" ry="12.5" style="stroke:#708090;stroke-width:0.5;" width="224.8828" x="291.7383" y="499.9141"/><path d="M306.2383,513.0469 L305.7383,514.2369 C305.6383,514.2669 305.5483,514.3169 305.4583,514.3669 L304.2683,513.8669 L303.5483,514.5869 L304.0483,515.7769 C303.9983,515.8769 303.9583,515.9569 303.9183,516.0569 L302.7283,516.5569 L302.7283,517.5569 L303.9183,518.0569 C303.9583,518.1569 303.9983,518.2369 304.0483,518.3369 L303.5483,519.5269 L304.2683,520.2469 L305.4583,519.7469 C305.5483,519.7869 305.6383,519.8369 305.7383,519.8769 L306.2383,521.0669 L307.2383,521.0669 L307.7383,519.8769 C307.8283,519.8369 307.9283,519.7969 308.0183,519.7469 L309.2083,520.2469 L309.9283,519.5269 L309.4283,518.3369 C309.4683,518.2469 309.5183,518.1469 309.5583,518.0569 L310.7483,517.5569 L310.7483,516.5569 L309.5583,516.0569 C309.5283,515.9669 309.4783,515.8669 309.4283,515.7769 L309.9283,514.5869 L309.2083,513.8669 L308.0183,514.3669 C307.9283,514.3269 307.8283,514.2769 307.7383,514.2369 L307.2383,513.0469 L306.2383,513.0469 M306.7383,515.5469 C307.5683,515.5469 308.2383,516.2169 308.2383,517.0469 C308.2383,517.8769 307.5683,518.5469 306.7383,518.5469 C305.9083,518.5469 305.2383,517.8769 305.2383,517.0469 C305.2383,516.2169 305.9083,515.5469 306.7383,515.5469" fill="#000000"/><text fill="#000000" font-family="sans-serif" font-size="12" lengthAdjust="spacing" textLength="191.0859" x="315.5352" y="521.5156">Create draft project assignments</text><ellipse cx="404.1797" cy="565.0469" fill="none" rx="11" ry="11" style="stroke:#222222;stroke-width:1;"/><ellipse cx="404.1797" cy="565.0469" fill="#222222" rx="6" ry="6" style="stroke:#222222;stroke-width:1;"/><line style="stroke:#000000;stroke-width:1.5;" x1="282.0234" x2="282.0234" y1="54.7852" y2="576.0469"/><line style="stroke:#000000;stroke-width:1.5;" x1="524.3359" x2="524.3359" y1="54.7852" y2="576.0469"/><line style="stroke:#181818;stroke-width:1;" x1="152.0117" x2="152.0117" y1="100.9844" y2="120.9844"/><polygon fill="#181818" points="148.0117,110.9844,152.0117,120.9844,156.0117,110.9844,152.0117,114.9844" style="stroke:#181818;stroke-width:1;stroke-linejoin:miter;stroke-miterlimit:10;"/><line style="stroke:#181818;stroke-width:1;" x1="152.0117" x2="152.0117" y1="155.1172" y2="175.1172"/><polygon fill="#181818" points="148.0117,165.1172,152.0117,175.1172,156.0117,165.1172,152.0117,169.1172" style="stroke:#181818;stroke-width:1;stroke-linejoin:miter;stroke-miterlimit:10;"/><line style="stroke:#181818;stroke-width:1;" x1="152.0117" x2="152.0117" y1="209.25" y2="229.25"/><polygon fill="#181818" points="148.0117,219.25,152.0117,229.25,156.0117,219.25,152.0117,223.25" style="stroke:#181818;stroke-width:1;stroke-linejoin:miter;stroke-miterlimit:10;"/><line style="stroke:#181818;stroke-width:1;" x1="404.1797" x2="404.1797" y1="317.5156" y2="337.5156"/><polygon fill="#181818" points="400.1797,327.5156,404.1797,337.5156,408.1797,327.5156,404.1797,331.5156" style="stroke:#181818;stroke-width:1;stroke-linejoin:miter;stroke-miterlimit:10;"/><line style="stroke:#181818;stroke-width:1;" x1="404.1797" x2="404.1797" y1="371.6484" y2="391.6484"/><polygon fill="#181818" points="400.1797,381.6484,404.1797,391.6484,408.1797,381.6484,404.1797,385.6484" style="stroke:#181818;stroke-width:1;stroke-linejoin:miter;stroke-miterlimit:10;"/><line style="stroke:#181818;stroke-width:1;" x1="404.1797" x2="404.1797" y1="425.7813" y2="445.7813"/><polygon fill="#181818" points="400.1797,435.7813,404.1797,445.7813,408.1797,435.7813,404.1797,439.7813" style="stroke:#181818;stroke-width:1;stroke-linejoin:miter;stroke-miterlimit:10;"/><line style="stroke:#181818;stroke-width:1;" x1="404.1797" x2="404.1797" y1="479.9141" y2="499.9141"/><polygon fill="#181818" points="400.1797,489.9141,404.1797,499.9141,408.1797,489.9141,404.1797,493.9141" style="stroke:#181818;stroke-width:1;stroke-linejoin:miter;stroke-miterlimit:10;"/><line style="stroke:#181818;stroke-width:1;" x1="404.1797" x2="404.1797" y1="534.0469" y2="554.0469"/><polygon fill="#181818" points="400.1797,544.0469,404.1797,554.0469,408.1797,544.0469,404.1797,548.0469" style="stroke:#181818;stroke-width:1;stroke-linejoin:miter;stroke-miterlimit:10;"/><line style="stroke:#181818;stroke-width:1;" x1="152.0117" x2="152.0117" y1="263.3828" y2="268.3828"/><line style="stroke:#181818;stroke-width:1;" x1="152.0117" x2="404.1797" y1="268.3828" y2="268.3828"/><line style="stroke:#181818;stroke-width:1;" x1="404.1797" x2="404.1797" y1="268.3828" y2="283.3828"/><polygon fill="#181818" points="400.1797,273.3828,404.1797,283.3828,408.1797,273.3828,404.1797,277.3828" style="stroke:#181818;stroke-width:1;stroke-linejoin:miter;stroke-miterlimit:10;"/><text fill="#000000" font-family="sans-serif" font-size="18" lengthAdjust="spacing" textLength="120.498" x="90.7627" y="72.1875">Administrator</text><text fill="#000000" font-family="sans-serif" font-size="18" lengthAdjust="spacing" textLength="35.0771" x="385.6411" y="72.1875">App</text><?plantuml-src fPB1RXCn48Rl-nI3aE3K5oXHf998om54rI9ndjYJNHFROyRZXfLoo4DmX9VBa-1acpQ2gAXmiZqUV-F_dtcH1Bk0u77Wef03AKPirAadQ8LBWclXBsGKTjllS5MK0wepy07Lz2vsJLwvc50mGExHyhh6O8a-K_CQohUBh8EdYmLrBfwaeb5tvtHuYsRLrIhHpjYpGDjpri-zKpgNp699niHRZqgju70cR-umSBI_izzJZSvwjrnoVEBLIP4vogfbRodUi3sLGz4spURA1XTTLa5bsTHpIfi_mrbHzF3u4X9s11jO2A-hFvUJL-DEfl0nKHolTziVHsz1IjnjVxw1oUJbepFJwVDejtX75iAHcKcrhla9yAAeSgnemo4utQEhY8vq2ZFlp0fQYbJb4LZ1fJwm3xnhzFIfoDV2Bk-HeoqZE0zPALGmtizHxKI56-wcS4De8PT5BQZrlqbeIKBH41mwaW_mTnnfcDFwuQj_9QRxwJMOqDGsLqrntniNzL-G9LO3VGMUMeg-Ot7QX-S3PqAFFcOjTTOKzbERyd_2Zi8nPzV5G6VqPkNq2m00?></g></svg>