<svg xmlns="http://www.w3.org/2000/svg" xmlns:xlink="http://www.w3.org/1999/xlink" contentStyleType="text/css" data-diagram-type="ACTIVITY" height="804px" preserveAspectRatio="none" style="width:1290px;height:804px;background:#FFFFFF;" version="1.1" viewBox="0 0 1290 804" width="1290px" zoomAndPan="magnify"><?plantuml 1.2026.6?><defs/><g><g class="title" data-source-line="2"><text fill="#000000" font-family="sans-serif" font-size="14" font-weight="700" lengthAdjust="spacing" textLength="305.0059" x="491.6484" y="33.5352">Group Project &#8212; Draft Group Management</text></g><rect fill="none" height="21.1992" style="stroke:none;stroke-width:1;" width="1243.3027" x="20" y="54.7852"/><ellipse cx="324.2461" cy="90.9844" fill="#222222" rx="10" ry="10" style="stroke:#222222;stroke-width:1;"/><polygon fill="#F1F1F1" points="251.8894,120.9844,396.6028,120.9844,408.6028,132.9844,396.6028,144.9844,251.8894,144.9844,239.8894,132.9844,251.8894,120.9844" style="stroke:#181818;stroke-width:0.5;stroke-linejoin:miter;stroke-miterlimit:10;"/><text fill="#000000" font-family="sans-serif" font-size="11" lengthAdjust="spacing" textLength="144.7134" x="251.8894" y="137.1416">Selected draft group action</text><rect fill="#F1F1F1" height="34.1328" rx="12.5" ry="12.5" style="stroke:#181818;stroke-width:0.5;" width="147.3418" x="47.0176" y="180.8945"/><text fill="#000000" font-family="sans-serif" font-size="12" lengthAdjust="spacing" textLength="127.3418" x="57.0176" y="202.4961">Click New draft group</text><rect fill="#F1F1F1" height="34.1328" rx="12.5" ry="12.5" style="stroke:#181818;stroke-width:0.5;" width="182.6094" x="29.3838" y="235.0273"/><text fill="#000000" font-family="sans-serif" font-size="12" lengthAdjust="spacing" textLength="162.6094" x="39.3838" y="256.6289">Search unassigned students</text><rect fill="#F1F1F1" height="34.1328" rx="12.5" ry="12.5" style="stroke:#181818;stroke-width:0.5;" width="177.4121" x="31.9824" y="289.1602"/><text fill="#000000" font-family="sans-serif" font-size="12" lengthAdjust="spacing" textLength="157.4121" x="41.9824" y="310.7617">Add student to draft group</text><rect fill="#F1F1F1" height="34.1328" rx="12.5" ry="12.5" style="stroke:#181818;stroke-width:0.5;" width="163.5313" x="38.9229" y="343.293"/><text fill="#000000" font-family="sans-serif" font-size="12" lengthAdjust="spacing" textLength="143.5313" x="48.9229" y="364.8945">Search available projects</text><rect fill="#F1F1F1" height="34.1328" rx="12.5" ry="12.5" style="stroke:#181818;stroke-width:0.5;" width="189.377" x="26" y="397.4258"/><text fill="#000000" font-family="sans-serif" font-size="12" lengthAdjust="spacing" textLength="169.377" x="36" y="419.0273">Select project for draft group</text><rect fill="#F1F1F1" height="34.1328" rx="12.5" ry="12.5" style="stroke:#181818;stroke-width:0.5;" width="148.5313" x="46.4229" y="451.5586"/><text fill="#000000" font-family="sans-serif" font-size="12" lengthAdjust="spacing" textLength="128.5313" x="56.4229" y="473.1602">Click Save draft group</text><rect fill="#F1F1F1" height="34.1328" rx="12.5" ry="12.5" style="stroke:#181818;stroke-width:0.5;" width="121.3555" x="263.8379" y="180.8945"/><text fill="#000000" font-family="sans-serif" font-size="12" lengthAdjust="spacing" textLength="101.3555" x="273.8379" y="202.4961">Open draft group</text><rect fill="#F1F1F1" height="34.1328" rx="12.5" ry="12.5" style="stroke:#181818;stroke-width:0.5;" width="162.9453" x="243.043" y="235.0273"/><text fill="#000000" font-family="sans-serif" font-size="12" lengthAdjust="spacing" textLength="142.9453" x="253.043" y="256.6289">Open group member list</text><rect fill="#F1F1F1" height="34.1328" rx="12.5" ry="12.5" style="stroke:#181818;stroke-width:0.5;" width="198.2773" x="225.377" y="289.1602"/><text fill="#000000" font-family="sans-serif" font-size="12" lengthAdjust="spacing" textLength="178.2773" x="235.377" y="310.7617">Open draft project assignment</text><rect fill="#F1F1F1" height="34.1328" rx="12.5" ry="12.5" style="stroke:#181818;stroke-width:0.5;" width="159.5469" x="448.2998" y="180.8945"/><text fill="#000000" font-family="sans-serif" font-size="12" lengthAdjust="spacing" textLength="139.5469" x="458.2998" y="202.4961">Click Delete draft group</text><rect fill="#F1F1F1" height="34.1328" rx="12.5" ry="12.5" style="stroke:#181818;stroke-width:0.5;" width="188.8379" x="433.6543" y="235.0273"/><text fill="#000000" font-family="sans-serif" font-size="12" lengthAdjust="spacing" textLength="168.8379" x="443.6543" y="256.6289">Click Confirm group deletion</text><polygon fill="#F1F1F1" points="324.2461,505.6914,324.2461,505.6914,336.2461,517.6914,324.2461,529.6914,324.2461,529.6914,312.2461,517.6914,324.2461,505.6914" style="stroke:#181818;stroke-width:0.5;stroke-linejoin:miter;stroke-miterlimit:10;"/><line style="stroke:#000000;stroke-width:1.5;" x1="20" x2="20" y1="54.7852" y2="783.8672"/><polygon fill="#F1F1F1" points="872.6169,549.6914,1017.3303,549.6914,1029.3303,561.6914,1017.3303,573.6914,872.6169,573.6914,860.6169,561.6914,872.6169,549.6914" style="stroke:#181818;stroke-width:0.5;stroke-linejoin:miter;stroke-miterlimit:10;"/><text fill="#000000" font-family="sans-serif" font-size="11" lengthAdjust="spacing" textLength="144.7134" x="872.6169" y="565.8486">Selected draft group action</text><rect fill="#F1F1F1" height="34.1328" rx="12.5" ry="12.5" style="stroke:#181818;stroke-width:0.5;" width="169.4199" x="650.2666" y="609.6016"/><text fill="#000000" font-family="sans-serif" font-size="12" lengthAdjust="spacing" textLength="149.4199" x="660.2666" y="631.2031">Create draft group record</text><rect fill="#F1F1F1" height="34.1328" rx="12.5" ry="12.5" style="stroke:#181818;stroke-width:0.5;" width="204.9688" x="632.4922" y="663.7344"/><text fill="#000000" font-family="sans-serif" font-size="12" lengthAdjust="spacing" textLength="184.9688" x="642.4922" y="685.3359">Create draft project assignment</text><rect fill="#F1F1F1" height="34.1328" rx="12.5" ry="12.5" style="stroke:#181818;stroke-width:0.5;" width="160.1738" x="865.2354" y="609.6016"/><text fill="#000000" font-family="sans-serif" font-size="12" lengthAdjust="spacing" textLength="140.1738" x="875.2354" y="631.2031">Read draft group record</text><rect fill="#F1F1F1" height="34.1328" rx="12.5" ry="12.5" style="stroke:#181818;stroke-width:0.5;" width="195.7227" x="847.4609" y="663.7344"/><text fill="#000000" font-family="sans-serif" font-size="12" lengthAdjust="spacing" textLength="175.7227" x="857.4609" y="685.3359">Read draft project assignment</text><rect fill="#F1F1F1" height="34.1328" rx="12.5" ry="12.5" style="stroke:#181818;stroke-width:0.5;" width="204.2715" x="1053.1836" y="609.6016"/><text fill="#000000" font-family="sans-serif" font-size="12" lengthAdjust="spacing" textLength="184.2715" x="1063.1836" y="631.2031">Delete draft project assignment</text><rect fill="#F1F1F1" height="34.1328" rx="12.5" ry="12.5" style="stroke:#181818;stroke-width:0.5;" width="168.7227" x="1070.958" y="663.7344"/><text fill="#000000" font-family="sans-serif" font-size="12" lengthAdjust="spacing" textLength="148.7227" x="1080.958" y="685.3359">Delete draft group record</text><polygon fill="#F1F1F1" points="944.9736,717.8672,944.9736,717.8672,956.9736,729.8672,944.9736,741.8672,944.9736,741.8672,932.9736,729.8672,944.9736,717.8672" style="stroke:#181818;stroke-width:0.5;stroke-linejoin:miter;stroke-miterlimit:10;"/><ellipse cx="944.9736" cy="772.8672" fill="none" rx="11" ry="11" style="stroke:#222222;stroke-width:1;"/><ellipse cx="944.9736" cy="772.8672" fill="#222222" rx="6" ry="6" style="stroke:#222222;stroke-width:1;"/><line style="stroke:#000000;stroke-width:1.5;" x1="626.4922" x2="626.4922" y1="54.7852" y2="783.8672"/><line style="stroke:#000000;stroke-width:1.5;" x1="1261.4551" x2="1261.4551" y1="54.7852" y2="783.8672"/><line style="stroke:#181818;stroke-width:1;" x1="120.6885" x2="120.6885" y1="215.0273" y2="235.0273"/><polygon fill="#181818" points="116.6885,225.0273,120.6885,235.0273,124.6885,225.0273,120.6885,229.0273" style="stroke:#181818;stroke-width:1;stroke-linejoin:miter;stroke-miterlimit:10;"/><line style="stroke:#181818;stroke-width:1;" x1="120.6885" x2="120.6885" y1="269.1602" y2="289.1602"/><polygon fill="#181818" points="116.6885,279.1602,120.6885,289.1602,124.6885,279.1602,120.6885,283.1602" style="stroke:#181818;stroke-width:1;stroke-linejoin:miter;stroke-miterlimit:10;"/><line style="stroke:#181818;stroke-width:1;" x1="120.6885" x2="120.6885" y1="323.293" y2="343.293"/><polygon fill="#181818" points="116.6885,333.293,120.6885,343.293,124.6885,333.293,120.6885,337.293" style="stroke:#181818;stroke-width:1;stroke-linejoin:miter;stroke-miterlimit:10;"/><line style="stroke:#181818;stroke-width:1;" x1="120.6885" x2="120.6885" y1="377.4258" y2="397.4258"/><polygon fill="#181818" points="116.6885,387.4258,120.6885,397.4258,124.6885,387.4258,120.6885,391.4258" style="stroke:#181818;stroke-width:1;stroke-linejoin:miter;stroke-miterlimit:10;"/><line style="stroke:#181818;stroke-width:1;" x1="120.6885" x2="120.6885" y1="431.5586" y2="451.5586"/><polygon fill="#181818" points="116.6885,441.5586,120.6885,451.5586,124.6885,441.5586,120.6885,445.5586" style="stroke:#181818;stroke-width:1;stroke-linejoin:miter;stroke-miterlimit:10;"/><line style="stroke:#181818;stroke-width:1;" x1="324.5156" x2="324.5156" y1="215.0273" y2="235.0273"/><polygon fill="#181818" points="320.5156,225.0273,324.5156,235.0273,328.5156,225.0273,324.5156,229.0273" style="stroke:#181818;stroke-width:1;stroke-linejoin:miter;stroke-miterlimit:10;"/><line style="stroke:#181818;stroke-width:1;" x1="324.5156" x2="324.5156" y1="269.1602" y2="289.1602"/><polygon fill="#181818" points="320.5156,279.1602,324.5156,289.1602,328.5156,279.1602,324.5156,283.1602" style="stroke:#181818;stroke-width:1;stroke-linejoin:miter;stroke-miterlimit:10;"/><line style="stroke:#181818;stroke-width:1;" x1="528.0732" x2="528.0732" y1="215.0273" y2="235.0273"/><polygon fill="#181818" points="524.0732,225.0273,528.0732,235.0273,532.0732,225.0273,528.0732,229.0273" style="stroke:#181818;stroke-width:1;stroke-linejoin:miter;stroke-miterlimit:10;"/><line style="stroke:#181818;stroke-width:1;" x1="239.8894" x2="120.6885" y1="132.9844" y2="132.9844"/><line style="stroke:#181818;stroke-width:1;" x1="120.6885" x2="120.6885" y1="132.9844" y2="180.8945"/><polygon fill="#181818" points="116.6885,170.8945,120.6885,180.8945,124.6885,170.8945,120.6885,174.8945" style="stroke:#181818;stroke-width:1;stroke-linejoin:miter;stroke-miterlimit:10;"/><text fill="#000000" font-family="sans-serif" font-size="11" lengthAdjust="spacing" textLength="58.0776" x="120.6885" y="161.0967">New group</text><line style="stroke:#181818;stroke-width:1;" x1="408.6028" x2="528.0732" y1="132.9844" y2="132.9844"/><line style="stroke:#181818;stroke-width:1;" x1="528.0732" x2="528.0732" y1="132.9844" y2="180.8945"/><polygon fill="#181818" points="524.0732,170.8945,528.0732,180.8945,532.0732,170.8945,528.0732,174.8945" style="stroke:#181818;stroke-width:1;stroke-linejoin:miter;stroke-miterlimit:10;"/><text fill="#000000" font-family="sans-serif" font-size="11" lengthAdjust="spacing" textLength="69.2656" x="528.0732" y="161.0967">Delete group</text><line style="stroke:#181818;stroke-width:1;" x1="324.2461" x2="324.2461" y1="144.9844" y2="156.9544"/><line style="stroke:#181818;stroke-width:1;" x1="324.2461" x2="324.5156" y1="156.9544" y2="156.9544"/><line style="stroke:#181818;stroke-width:1;" x1="324.5156" x2="324.5156" y1="156.9544" y2="180.8945"/><polygon fill="#181818" points="320.5156,170.8945,324.5156,180.8945,328.5156,170.8945,324.5156,174.8945" style="stroke:#181818;stroke-width:1;stroke-linejoin:miter;stroke-miterlimit:10;"/><text fill="#000000" font-family="sans-serif" font-size="11" lengthAdjust="spacing" textLength="63.771" x="324.2461" y="162.0967">Open group</text><line style="stroke:#181818;stroke-width:1;" x1="120.6885" x2="120.6885" y1="485.6914" y2="517.6914"/><line style="stroke:#181818;stroke-width:1;" x1="120.6885" x2="312.2461" y1="517.6914" y2="517.6914"/><polygon fill="#181818" points="302.2461,513.6914,312.2461,517.6914,302.2461,521.6914,306.2461,517.6914" style="stroke:#181818;stroke-width:1;stroke-linejoin:miter;stroke-miterlimit:10;"/><line style="stroke:#181818;stroke-width:1;" x1="528.0732" x2="528.0732" y1="269.1602" y2="517.6914"/><line style="stroke:#181818;stroke-width:1;" x1="528.0732" x2="336.2461" y1="517.6914" y2="517.6914"/><polygon fill="#181818" points="346.2461,513.6914,336.2461,517.6914,346.2461,521.6914,342.2461,517.6914" style="stroke:#181818;stroke-width:1;stroke-linejoin:miter;stroke-miterlimit:10;"/><line style="stroke:#181818;stroke-width:1;" x1="324.5156" x2="324.5156" y1="323.293" y2="436.9922"/><line style="stroke:#181818;stroke-width:1;" x1="324.5156" x2="324.2461" y1="436.9922" y2="436.9922"/><line style="stroke:#181818;stroke-width:1;" x1="324.2461" x2="324.2461" y1="436.9922" y2="505.6914"/><polygon fill="#181818" points="320.2461,495.6914,324.2461,505.6914,328.2461,495.6914,324.2461,499.6914" style="stroke:#181818;stroke-width:1;stroke-linejoin:miter;stroke-miterlimit:10;"/><line style="stroke:#181818;stroke-width:1;" x1="324.2461" x2="324.2461" y1="100.9844" y2="120.9844"/><polygon fill="#181818" points="320.2461,110.9844,324.2461,120.9844,328.2461,110.9844,324.2461,114.9844" style="stroke:#181818;stroke-width:1;stroke-linejoin:miter;stroke-miterlimit:10;"/><line style="stroke:#181818;stroke-width:1;" x1="734.9766" x2="734.9766" y1="643.7344" y2="663.7344"/><polygon fill="#181818" points="730.9766,653.7344,734.9766,663.7344,738.9766,653.7344,734.9766,657.7344" style="stroke:#181818;stroke-width:1;stroke-linejoin:miter;stroke-miterlimit:10;"/><line style="stroke:#181818;stroke-width:1;" x1="945.3223" x2="945.3223" y1="643.7344" y2="663.7344"/><polygon fill="#181818" points="941.3223,653.7344,945.3223,663.7344,949.3223,653.7344,945.3223,657.7344" style="stroke:#181818;stroke-width:1;stroke-linejoin:miter;stroke-miterlimit:10;"/><line style="stroke:#181818;stroke-width:1;" x1="1155.3193" x2="1155.3193" y1="643.7344" y2="663.7344"/><polygon fill="#181818" points="1151.3193,653.7344,1155.3193,663.7344,1159.3193,653.7344,1155.3193,657.7344" style="stroke:#181818;stroke-width:1;stroke-linejoin:miter;stroke-miterlimit:10;"/><line style="stroke:#181818;stroke-width:1;" x1="860.6169" x2="734.9766" y1="561.6914" y2="561.6914"/><line style="stroke:#181818;stroke-width:1;" x1="734.9766" x2="734.9766" y1="561.6914" y2="609.6016"/><polygon fill="#181818" points="730.9766,599.6016,734.9766,609.6016,738.9766,599.6016,734.9766,603.6016" style="stroke:#181818;stroke-width:1;stroke-linejoin:miter;stroke-miterlimit:10;"/><text fill="#000000" font-family="sans-serif" font-size="11" lengthAdjust="spacing" textLength="58.0776" x="734.9766" y="589.8037">New group</text><line style="stroke:#181818;stroke-width:1;" x1="1029.3303" x2="1155.3193" y1="561.6914" y2="561.6914"/><line style="stroke:#181818;stroke-width:1;" x1="1155.3193" x2="1155.3193" y1="561.6914" y2="609.6016"/><polygon fill="#181818" points="1151.3193,599.6016,1155.3193,609.6016,1159.3193,599.6016,1155.3193,603.6016" style="stroke:#181818;stroke-width:1;stroke-linejoin:miter;stroke-miterlimit:10;"/><text fill="#000000" font-family="sans-serif" font-size="11" lengthAdjust="spacing" textLength="69.2656" x="1155.3193" y="589.8037">Delete group</text><line style="stroke:#181818;stroke-width:1;" x1="944.9736" x2="944.9736" y1="573.6914" y2="585.6615"/><line style="stroke:#181818;stroke-width:1;" x1="944.9736" x2="945.3223" y1="585.6615" y2="585.6615"/><line style="stroke:#181818;stroke-width:1;" x1="945.3223" x2="945.3223" y1="585.6615" y2="609.6016"/><polygon fill="#181818" points="941.3223,599.6016,945.3223,609.6016,949.3223,599.6016,945.3223,603.6016" style="stroke:#181818;stroke-width:1;stroke-linejoin:miter;stroke-miterlimit:10;"/><text fill="#000000" font-family="sans-serif" font-size="11" lengthAdjust="spacing" textLength="63.771" x="944.9736" y="590.8037">Open group</text><line style="stroke:#181818;stroke-width:1;" x1="734.9766" x2="734.9766" y1="697.8672" y2="729.8672"/><line style="stroke:#181818;stroke-width:1;" x1="734.9766" x2="932.9736" y1="729.8672" y2="729.8672"/><polygon fill="#181818" points="922.9736,725.8672,932.9736,729.8672,922.9736,733.8672,926.9736,729.8672" style="stroke:#181818;stroke-width:1;stroke-linejoin:miter;stroke-miterlimit:10;"/><line style="stroke:#181818;stroke-width:1;" x1="1155.3193" x2="1155.3193" y1="697.8672" y2="729.8672"/><line style="stroke:#181818;stroke-width:1;" x1="1155.3193" x2="956.9736" y1="729.8672" y2="729.8672"/><polygon fill="#181818" points="966.9736,725.8672,956.9736,729.8672,966.9736,733.8672,962.9736,729.8672" style="stroke:#181818;stroke-width:1;stroke-linejoin:miter;stroke-miterlimit:10;"/><line style="stroke:#181818;stroke-width:1;" x1="945.3223" x2="945.3223" y1="697.8672" y2="702.8672"/><line style="stroke:#181818;stroke-width:1;" x1="945.3223" x2="944.9736" y1="702.8672" y2="702.8672"/><line style="stroke:#181818;stroke-width:1;" x1="944.9736" x2="944.9736" y1="702.8672" y2="717.8672"/><polygon fill="#181818" points="940.9736,707.8672,944.9736,717.8672,948.9736,707.8672,944.9736,711.8672" style="stroke:#181818;stroke-width:1;stroke-linejoin:miter;stroke-miterlimit:10;"/><line style="stroke:#181818;stroke-width:1;" x1="944.9736" x2="944.9736" y1="741.8672" y2="761.8672"/><polygon fill="#181818" points="940.9736,751.8672,944.9736,761.8672,948.9736,751.8672,944.9736,755.8672" style="stroke:#181818;stroke-width:1;stroke-linejoin:miter;stroke-miterlimit:10;"/><line style="stroke:#181818;stroke-width:1;" x1="324.2461" x2="324.2461" y1="529.6914" y2="534.6914"/><line style="stroke:#181818;stroke-width:1;" x1="324.2461" x2="944.9736" y1="534.6914" y2="534.6914"/><line style="stroke:#181818;stroke-width:1;" x1="944.9736" x2="944.9736" y1="534.6914" y2="549.6914"/><polygon fill="#181818" points="940.9736,539.6914,944.9736,549.6914,948.9736,539.6914,944.9736,543.6914" style="stroke:#181818;stroke-width:1;stroke-linejoin:miter;stroke-miterlimit:10;"/><text fill="#000000" font-family="sans-serif" font-size="18" lengthAdjust="spacing" textLength="120.498" x="262.9971" y="72.1875">Administrator</text><text fill="#000000" font-family="sans-serif" font-size="18" lengthAdjust="spacing" textLength="35.0771" x="926.4351" y="72.1875">App</text><?plantuml-src dL4vRiD03Ept5KndVo6g31j8bGFn2sWj9M-iFS2bR0HmaKVaXNb9LeTZ7N6Hb9pXCJEy2uobHQZmtTS2qPAWGoL6Ae87zdM05_Plb0jyVNp2Xh6G7dzCZILPSgBYmRY0Z1QiTpxVixS4mZKDcBX7xK_6bL1W5KcfyqfRuqmKHl5yJdK8vpaS1JbTE1d9zx3OKfMqa0RTAYbR9PYByMwfSem4YoSwTVXI0TolAvCVeC464rd3R0avhQmTncXAbtP6gNMo4rjwfNy047zh6ezeAjobi48NK-pPHkO5WyBpR44dR8j76bETYUT0Rk2YBQSRhZrWoUw8eKgnPPF-YuREPVEkourD4Yaqowg7VzUxzgumRFkpkcbDqMUAdEvUfFe__lzXJ3W-3qovPvtDsDlM9l6z4kfR6mVS7w8QXVJRtBHdVFSQLnGVlW40?></g></svg>