<svg xmlns="http://www.w3.org/2000/svg" xmlns:xlink="http://www.w3.org/1999/xlink" contentStyleType="text/css" data-diagram-type="ACTIVITY" height="588px" preserveAspectRatio="none" style="width:1426px;height:588px;background:#FFFFFF;" version="1.1" viewBox="0 0 1426 588" width="1426px" zoomAndPan="magnify"><?plantuml 1.2026.6?><defs/><g><g class="title" data-source-line="2"><text fill="#000000" font-family="sans-serif" font-size="14" font-weight="700" lengthAdjust="spacing" textLength="352.5293" x="536.207" y="33.5352">Group Project &#8212; Membership and Project Editing</text></g><rect fill="none" height="21.1992" style="stroke:none;stroke-width:1;" width="1379.9434" x="20" y="54.7852"/><ellipse cx="361.916" cy="90.9844" fill="#222222" rx="10" ry="10" style="stroke:#222222;stroke-width:1;"/><polygon fill="#FFFACD" points="301.2898,120.9844,422.5422,120.9844,434.5422,132.9844,422.5422,144.9844,301.2898,144.9844,289.2898,132.9844,301.2898,120.9844" style="stroke:#B8860B;stroke-width:0.5;stroke-linejoin:miter;stroke-miterlimit:10;"/><text fill="#000000" font-family="sans-serif" font-size="11" lengthAdjust="spacing" textLength="121.2524" x="301.2898" y="137.1416">Selected matching edit</text><rect fill="#F8F8FF" height="34.1328" rx="12.5" ry="12.5" style="stroke:#708090;stroke-width:0.5;" width="196.4063" x="26" y="180.8945"/><path d="M43,194.0273 L42,195.0273 L44,197.0273 L45,196.0273 L43,194.0273 M41,196.0273 L37,200.0273 L37,202.0273 L39,202.0273 L43,198.0273 L41,196.0273" fill="#000000"/><text fill="#000000" font-family="sans-serif" font-size="12" lengthAdjust="spacing" textLength="162.6094" x="49.7969" y="202.4961">Search unassigned students</text><rect fill="#F0F8FF" height="34.1328" rx="12.5" ry="12.5" style="stroke:#708090;stroke-width:0.5;" width="191.209" x="28.5986" y="235.0273"/><path d="M43.5986,248.1602 C41.3986,248.1602 39.5986,249.9602 39.5986,252.1602 C39.5986,254.3602 41.3986,256.1602 43.5986,256.1602 C45.7986,256.1602 47.5986,254.3602 47.5986,252.1602 C47.5986,249.9602 45.7986,248.1602 43.5986,248.1602 M43.5986,249.1602 C45.2586,249.1602 46.5986,250.5002 46.5986,252.1602 C46.5986,253.8202 45.2586,255.1602 43.5986,255.1602 C41.9386,255.1602 40.5986,253.8202 40.5986,252.1602 C40.5986,250.5002 41.9386,249.1602 43.5986,249.1602 M43.5986,250.1602 C42.4986,250.1602 41.5986,251.0602 41.5986,252.1602 C41.5986,253.2602 42.4986,254.1602 43.5986,254.1602 C44.6986,254.1602 45.5986,253.2602 45.5986,252.1602 C45.5986,251.0602 44.6986,250.1602 43.5986,250.1602 M43.5986,251.1602 C44.1586,251.1602 44.5986,251.6002 44.5986,252.1602 C44.5986,252.7202 44.1586,253.1602 43.5986,253.1602 C43.0386,253.1602 42.5986,252.7202 42.5986,252.1602 C42.5986,251.6002 43.0386,251.1602 43.5986,251.1602" fill="#000000"/><text fill="#000000" font-family="sans-serif" font-size="12" lengthAdjust="spacing" textLength="157.4121" x="52.3955" y="256.6289">Add student to draft group</text><rect fill="#AFEEEE" height="34.1328" rx="12.5" ry="12.5" style="stroke:#708090;stroke-width:0.5;" width="162.3281" x="43.0391" y="289.1602"/><path d="M58.0391,302.293 C55.8391,302.293 54.0391,304.093 54.0391,306.293 C54.0391,308.493 55.8391,310.293 58.0391,310.293 C60.2391,310.293 62.0391,308.493 62.0391,306.293 C62.0391,304.093 60.2391,302.293 58.0391,302.293 M58.0391,303.293 C59.6991,303.293 61.0391,304.633 61.0391,306.293 C61.0391,307.953 59.6991,309.293 58.0391,309.293 C56.3791,309.293 55.0391,307.953 55.0391,306.293 C55.0391,304.633 56.3791,303.293 58.0391,303.293 M58.0391,304.293 C56.9391,304.293 56.0391,305.193 56.0391,306.293 C56.0391,307.393 56.9391,308.293 58.0391,308.293 C59.1391,308.293 60.0391,307.393 60.0391,306.293 C60.0391,305.193 59.1391,304.293 58.0391,304.293 M58.0391,305.293 C58.5991,305.293 59.0391,305.733 59.0391,306.293 C59.0391,306.853 58.5991,307.293 58.0391,307.293 C57.4791,307.293 57.0391,306.853 57.0391,306.293 C57.0391,305.733 57.4791,305.293 58.0391,305.293" fill="#000000"/><text fill="#000000" font-family="sans-serif" font-size="12" lengthAdjust="spacing" textLength="128.5313" x="66.8359" y="310.7617">Click Save draft group</text><rect fill="#F0F8FF" height="34.1328" rx="12.5" ry="12.5" style="stroke:#708090;stroke-width:0.5;" width="229.6055" x="232.4063" y="180.8945"/><path d="M247.4063,194.0273 C245.2063,194.0273 243.4063,195.8273 243.4063,198.0273 C243.4063,200.2273 245.2063,202.0273 247.4063,202.0273 C249.6063,202.0273 251.4063,200.2273 251.4063,198.0273 C251.4063,195.8273 249.6063,194.0273 247.4063,194.0273 M247.4063,195.0273 C249.0663,195.0273 250.4063,196.3673 250.4063,198.0273 C250.4063,199.6873 249.0663,201.0273 247.4063,201.0273 C245.7463,201.0273 244.4063,199.6873 244.4063,198.0273 C244.4063,196.3673 245.7463,195.0273 247.4063,195.0273 M247.4063,196.0273 C246.3063,196.0273 245.4063,196.9273 245.4063,198.0273 C245.4063,199.1273 246.3063,200.0273 247.4063,200.0273 C248.5063,200.0273 249.4063,199.1273 249.4063,198.0273 C249.4063,196.9273 248.5063,196.0273 247.4063,196.0273 M247.4063,197.0273 C247.9663,197.0273 248.4063,197.4673 248.4063,198.0273 C248.4063,198.5873 247.9663,199.0273 247.4063,199.0273 C246.8463,199.0273 246.4063,198.5873 246.4063,198.0273 C246.4063,197.4673 246.8463,197.0273 247.4063,197.0273" fill="#000000"/><text fill="#000000" font-family="sans-serif" font-size="12" lengthAdjust="spacing" textLength="195.8086" x="256.2031" y="202.4961">Remove student from draft group</text><rect fill="#AFEEEE" height="34.1328" rx="12.5" ry="12.5" style="stroke:#708090;stroke-width:0.5;" width="162.3281" x="266.0449" y="235.0273"/><path d="M281.0449,248.1602 C278.8449,248.1602 277.0449,249.9602 277.0449,252.1602 C277.0449,254.3602 278.8449,256.1602 281.0449,256.1602 C283.2449,256.1602 285.0449,254.3602 285.0449,252.1602 C285.0449,249.9602 283.2449,248.1602 281.0449,248.1602 M281.0449,249.1602 C282.7049,249.1602 284.0449,250.5002 284.0449,252.1602 C284.0449,253.8202 282.7049,255.1602 281.0449,255.1602 C279.3849,255.1602 278.0449,253.8202 278.0449,252.1602 C278.0449,250.5002 279.3849,249.1602 281.0449,249.1602 M281.0449,250.1602 C279.9449,250.1602 279.0449,251.0602 279.0449,252.1602 C279.0449,253.2602 279.9449,254.1602 281.0449,254.1602 C282.1449,254.1602 283.0449,253.2602 283.0449,252.1602 C283.0449,251.0602 282.1449,250.1602 281.0449,250.1602 M281.0449,251.1602 C281.6049,251.1602 282.0449,251.6002 282.0449,252.1602 C282.0449,252.7202 281.6049,253.1602 281.0449,253.1602 C280.4849,253.1602 280.0449,252.7202 280.0449,252.1602 C280.0449,251.6002 280.4849,251.1602 281.0449,251.1602" fill="#000000"/><text fill="#000000" font-family="sans-serif" font-size="12" lengthAdjust="spacing" textLength="128.5313" x="289.8418" y="256.6289">Click Save draft group</text><rect fill="#F8F8FF" height="34.1328" rx="12.5" ry="12.5" style="stroke:#708090;stroke-width:0.5;" width="177.3281" x="496.2578" y="180.8945"/><path d="M513.2578,194.0273 L512.2578,195.0273 L514.2578,197.0273 L515.2578,196.0273 L513.2578,194.0273 M511.2578,196.0273 L507.2578,200.0273 L507.2578,202.0273 L509.2578,202.0273 L513.2578,198.0273 L511.2578,196.0273" fill="#000000"/><text fill="#000000" font-family="sans-serif" font-size="12" lengthAdjust="spacing" textLength="143.5313" x="520.0547" y="202.4961">Search available projects</text><rect fill="#F0F8FF" height="34.1328" rx="12.5" ry="12.5" style="stroke:#708090;stroke-width:0.5;" width="225.8203" x="472.0117" y="235.0273"/><path d="M483.5117,248.1602 C483.2317,248.1602 483.0117,248.3802 483.0117,248.6602 C483.0117,248.9402 483.2317,249.1602 483.5117,249.1602 C483.7917,249.1602 484.0117,248.9402 484.0117,248.6602 C484.0117,248.3802 483.7917,248.1602 483.5117,248.1602 M485.0117,248.1602 L485.0117,249.1602 L491.0117,249.1602 L491.0117,248.1602 L485.0117,248.1602 M483.5117,250.1602 C483.2317,250.1602 483.0117,250.3802 483.0117,250.6602 C483.0117,250.9402 483.2317,251.1602 483.5117,251.1602 C483.7917,251.1602 484.0117,250.9402 484.0117,250.6602 C484.0117,250.3802 483.7917,250.1602 483.5117,250.1602 M485.0117,250.1602 L485.0117,251.1602 L491.0117,251.1602 L491.0117,250.1602 L485.0117,250.1602 M483.5117,252.1602 C483.2317,252.1602 483.0117,252.3802 483.0117,252.6602 C483.0117,252.9402 483.2317,253.1602 483.5117,253.1602 C483.7917,253.1602 484.0117,252.9402 484.0117,252.6602 C484.0117,252.3802 483.7917,252.1602 483.5117,252.1602 M485.0117,252.1602 L485.0117,253.1602 L491.0117,253.1602 L491.0117,252.1602 L485.0117,252.1602 M483.5117,254.1602 C483.2317,254.1602 483.0117,254.3802 483.0117,254.6602 C483.0117,254.9402 483.2317,255.1602 483.5117,255.1602 C483.7917,255.1602 484.0117,254.9402 484.0117,254.6602 C484.0117,254.3802 483.7917,254.1602 483.5117,254.1602 M485.0117,254.1602 L485.0117,255.1602 L491.0117,255.1602 L491.0117,254.1602 L485.0117,254.1602" fill="#000000"/><text fill="#000000" font-family="sans-serif" font-size="12" lengthAdjust="spacing" textLength="192.0234" x="495.8086" y="256.6289">Replace draft project assignment</text><rect fill="#AFEEEE" height="34.1328" rx="12.5" ry="12.5" style="stroke:#708090;stroke-width:0.5;" width="162.3281" x="503.7578" y="289.1602"/><path d="M518.7578,302.293 C516.5578,302.293 514.7578,304.093 514.7578,306.293 C514.7578,308.493 516.5578,310.293 518.7578,310.293 C520.9578,310.293 522.7578,308.493 522.7578,306.293 C522.7578,304.093 520.9578,302.293 518.7578,302.293 M518.7578,303.293 C520.4178,303.293 521.7578,304.633 521.7578,306.293 C521.7578,307.953 520.4178,309.293 518.7578,309.293 C517.0978,309.293 515.7578,307.953 515.7578,306.293 C515.7578,304.633 517.0978,303.293 518.7578,303.293 M518.7578,304.293 C517.6578,304.293 516.7578,305.193 516.7578,306.293 C516.7578,307.393 517.6578,308.293 518.7578,308.293 C519.8578,308.293 520.7578,307.393 520.7578,306.293 C520.7578,305.193 519.8578,304.293 518.7578,304.293 M518.7578,305.293 C519.3178,305.293 519.7578,305.733 519.7578,306.293 C519.7578,306.853 519.3178,307.293 518.7578,307.293 C518.1978,307.293 517.7578,306.853 517.7578,306.293 C517.7578,305.733 518.1978,305.293 518.7578,305.293" fill="#000000"/><text fill="#000000" font-family="sans-serif" font-size="12" lengthAdjust="spacing" textLength="128.5313" x="527.5547" y="310.7617">Click Save draft group</text><polygon fill="#FFFACD" points="361.916,343.293,361.916,343.293,373.916,355.293,361.916,367.293,361.916,367.293,349.916,355.293,361.916,343.293" style="stroke:#B8860B;stroke-width:0.5;stroke-linejoin:miter;stroke-miterlimit:10;"/><line style="stroke:#000000;stroke-width:1.5;" x1="20" x2="20" y1="54.7852" y2="567.3359"/><polygon fill="#FFFACD" points="990.3376,387.293,1111.5901,387.293,1123.5901,399.293,1111.5901,411.293,990.3376,411.293,978.3376,399.293,990.3376,387.293" style="stroke:#B8860B;stroke-width:0.5;stroke-linejoin:miter;stroke-miterlimit:10;"/><text fill="#000000" font-family="sans-serif" font-size="11" lengthAdjust="spacing" textLength="121.2524" x="990.3376" y="403.4502">Selected matching edit</text><rect fill="#F0FFF0" height="34.1328" rx="12.5" ry="12.5" style="stroke:#708090;stroke-width:0.5;" width="221.9883" x="707.832" y="447.2031"/><path d="M722.332,460.3359 L721.832,461.5259 C721.732,461.5559 721.642,461.6059 721.552,461.6559 L720.362,461.1559 L719.642,461.8759 L720.142,463.0659 C720.092,463.1659 720.052,463.2459 720.012,463.3459 L718.822,463.8459 L718.822,464.8459 L720.012,465.3459 C720.052,465.4459 720.092,465.5259 720.142,465.6259 L719.642,466.8159 L720.362,467.5359 L721.552,467.0359 C721.642,467.0759 721.732,467.1259 721.832,467.1659 L722.332,468.3559 L723.332,468.3559 L723.832,467.1659 C723.922,467.1259 724.022,467.0859 724.112,467.0359 L725.302,467.5359 L726.022,466.8159 L725.522,465.6259 C725.562,465.5359 725.612,465.4359 725.652,465.3459 L726.842,464.8459 L726.842,463.8459 L725.652,463.3459 C725.622,463.2559 725.572,463.1559 725.522,463.0659 L726.022,461.8759 L725.302,461.1559 L724.112,461.6559 C724.022,461.6159 723.922,461.5659 723.832,461.5259 L723.332,460.3359 L722.332,460.3359 M722.832,462.8359 C723.662,462.8359 724.332,463.5059 724.332,464.3359 C724.332,465.1659 723.662,465.8359 722.832,465.8359 C722.002,465.8359 721.332,465.1659 721.332,464.3359 C721.332,463.5059 722.002,462.8359 722.832,462.8359" fill="#000000"/><text fill="#000000" font-family="sans-serif" font-size="12" lengthAdjust="spacing" textLength="188.1914" x="731.6289" y="468.8047">Update draft group membership</text><rect fill="#F0FFF0" height="34.1328" rx="12.5" ry="12.5" style="stroke:#708090;stroke-width:0.5;" width="221.9883" x="939.8203" y="447.2031"/><path d="M954.3203,460.3359 L953.8203,461.5259 C953.7203,461.5559 953.6303,461.6059 953.5403,461.6559 L952.3503,461.1559 L951.6303,461.8759 L952.1303,463.0659 C952.0803,463.1659 952.0403,463.2459 952.0003,463.3459 L950.8103,463.8459 L950.8103,464.8459 L952.0003,465.3459 C952.0403,465.4459 952.0803,465.5259 952.1303,465.6259 L951.6303,466.8159 L952.3503,467.5359 L953.5403,467.0359 C953.6303,467.0759 953.7203,467.1259 953.8203,467.1659 L954.3203,468.3559 L955.3203,468.3559 L955.8203,467.1659 C955.9103,467.1259 956.0103,467.0859 956.1003,467.0359 L957.2903,467.5359 L958.0103,466.8159 L957.5103,465.6259 C957.5503,465.5359 957.6003,465.4359 957.6403,465.3459 L958.8303,464.8459 L958.8303,463.8459 L957.6403,463.3459 C957.6103,463.2559 957.5603,463.1559 957.5103,463.0659 L958.0103,461.8759 L957.2903,461.1559 L956.1003,461.6559 C956.0103,461.6159 955.9103,461.5659 955.8203,461.5259 L955.3203,460.3359 L954.3203,460.3359 M954.8203,462.8359 C955.6503,462.8359 956.3203,463.5059 956.3203,464.3359 C956.3203,465.1659 955.6503,465.8359 954.8203,465.8359 C953.9903,465.8359 953.3203,465.1659 953.3203,464.3359 C953.3203,463.5059 953.9903,462.8359 954.8203,462.8359" fill="#000000"/><text fill="#000000" font-family="sans-serif" font-size="12" lengthAdjust="spacing" textLength="188.1914" x="963.6172" y="468.8047">Update draft group membership</text><rect fill="#F0FFF0" height="34.1328" rx="12.5" ry="12.5" style="stroke:#708090;stroke-width:0.5;" width="222.2871" x="1171.8086" y="447.2031"/><path d="M1186.3086,460.3359 L1185.8086,461.5259 C1185.7086,461.5559 1185.6186,461.6059 1185.5286,461.6559 L1184.3386,461.1559 L1183.6186,461.8759 L1184.1186,463.0659 C1184.0686,463.1659 1184.0286,463.2459 1183.9886,463.3459 L1182.7986,463.8459 L1182.7986,464.8459 L1183.9886,465.3459 C1184.0286,465.4459 1184.0686,465.5259 1184.1186,465.6259 L1183.6186,466.8159 L1184.3386,467.5359 L1185.5286,467.0359 C1185.6186,467.0759 1185.7086,467.1259 1185.8086,467.1659 L1186.3086,468.3559 L1187.3086,468.3559 L1187.8086,467.1659 C1187.8986,467.1259 1187.9986,467.0859 1188.0886,467.0359 L1189.2786,467.5359 L1189.9986,466.8159 L1189.4986,465.6259 C1189.5386,465.5359 1189.5886,465.4359 1189.6286,465.3459 L1190.8186,464.8459 L1190.8186,463.8459 L1189.6286,463.3459 C1189.5986,463.2559 1189.5486,463.1559 1189.4986,463.0659 L1189.9986,461.8759 L1189.2786,461.1559 L1188.0886,461.6559 C1187.9986,461.6159 1187.8986,461.5659 1187.8086,461.5259 L1187.3086,460.3359 L1186.3086,460.3359 M1186.8086,462.8359 C1187.6386,462.8359 1188.3086,463.5059 1188.3086,464.3359 C1188.3086,465.1659 1187.6386,465.8359 1186.8086,465.8359 C1185.9786,465.8359 1185.3086,465.1659 1185.3086,464.3359 C1185.3086,463.5059 1185.9786,462.8359 1186.8086,462.8359" fill="#000000"/><text fill="#000000" font-family="sans-serif" font-size="12" lengthAdjust="spacing" textLength="188.4902" x="1195.6055" y="468.8047">Update draft project assignment</text><polygon fill="#FFFACD" points="1050.9639,501.3359,1050.9639,501.3359,1062.9639,513.3359,1050.9639,525.3359,1050.9639,525.3359,1038.9639,513.3359,1050.9639,501.3359" style="stroke:#B8860B;stroke-width:0.5;stroke-linejoin:miter;stroke-miterlimit:10;"/><ellipse cx="1050.9639" cy="556.3359" fill="none" rx="11" ry="11" style="stroke:#222222;stroke-width:1;"/><ellipse cx="1050.9639" cy="556.3359" fill="#222222" rx="6" ry="6" style="stroke:#222222;stroke-width:1;"/><line style="stroke:#000000;stroke-width:1.5;" x1="701.832" x2="701.832" y1="54.7852" y2="567.3359"/><line style="stroke:#000000;stroke-width:1.5;" x1="1398.0957" x2="1398.0957" y1="54.7852" y2="567.3359"/><line style="stroke:#181818;stroke-width:1;" x1="124.2031" x2="124.2031" y1="215.0273" y2="235.0273"/><polygon fill="#181818" points="120.2031,225.0273,124.2031,235.0273,128.2031,225.0273,124.2031,229.0273" style="stroke:#181818;stroke-width:1;stroke-linejoin:miter;stroke-miterlimit:10;"/><line style="stroke:#181818;stroke-width:1;" x1="124.2031" x2="124.2031" y1="269.1602" y2="289.1602"/><polygon fill="#181818" points="120.2031,279.1602,124.2031,289.1602,128.2031,279.1602,124.2031,283.1602" style="stroke:#181818;stroke-width:1;stroke-linejoin:miter;stroke-miterlimit:10;"/><line style="stroke:#181818;stroke-width:1;" x1="347.209" x2="347.209" y1="215.0273" y2="235.0273"/><polygon fill="#181818" points="343.209,225.0273,347.209,235.0273,351.209,225.0273,347.209,229.0273" style="stroke:#181818;stroke-width:1;stroke-linejoin:miter;stroke-miterlimit:10;"/><line style="stroke:#181818;stroke-width:1;" x1="584.9219" x2="584.9219" y1="215.0273" y2="235.0273"/><polygon fill="#181818" points="580.9219,225.0273,584.9219,235.0273,588.9219,225.0273,584.9219,229.0273" style="stroke:#181818;stroke-width:1;stroke-linejoin:miter;stroke-miterlimit:10;"/><line style="stroke:#181818;stroke-width:1;" x1="584.9219" x2="584.9219" y1="269.1602" y2="289.1602"/><polygon fill="#181818" points="580.9219,279.1602,584.9219,289.1602,588.9219,279.1602,584.9219,283.1602" style="stroke:#181818;stroke-width:1;stroke-linejoin:miter;stroke-miterlimit:10;"/><line style="stroke:#181818;stroke-width:1;" x1="289.2898" x2="124.2031" y1="132.9844" y2="132.9844"/><line style="stroke:#181818;stroke-width:1;" x1="124.2031" x2="124.2031" y1="132.9844" y2="180.8945"/><polygon fill="#181818" points="120.2031,170.8945,124.2031,180.8945,128.2031,170.8945,124.2031,174.8945" style="stroke:#181818;stroke-width:1;stroke-linejoin:miter;stroke-miterlimit:10;"/><text fill="#000000" font-family="sans-serif" font-size="11" lengthAdjust="spacing" textLength="65.4575" x="124.2031" y="161.0967">Add student</text><line style="stroke:#181818;stroke-width:1;" x1="434.5422" x2="584.9219" y1="132.9844" y2="132.9844"/><line style="stroke:#181818;stroke-width:1;" x1="584.9219" x2="584.9219" y1="132.9844" y2="180.8945"/><polygon fill="#181818" points="580.9219,170.8945,584.9219,180.8945,588.9219,170.8945,584.9219,174.8945" style="stroke:#181818;stroke-width:1;stroke-linejoin:miter;stroke-miterlimit:10;"/><text fill="#000000" font-family="sans-serif" font-size="11" lengthAdjust="spacing" textLength="81.2109" x="584.9219" y="161.0967">Change project</text><line style="stroke:#181818;stroke-width:1;" x1="361.916" x2="361.916" y1="144.9844" y2="156.9544"/><line style="stroke:#181818;stroke-width:1;" x1="361.916" x2="347.209" y1="156.9544" y2="156.9544"/><line style="stroke:#181818;stroke-width:1;" x1="347.209" x2="347.209" y1="156.9544" y2="180.8945"/><polygon fill="#181818" points="343.209,170.8945,347.209,180.8945,351.209,170.8945,347.209,174.8945" style="stroke:#181818;stroke-width:1;stroke-linejoin:miter;stroke-miterlimit:10;"/><text fill="#000000" font-family="sans-serif" font-size="11" lengthAdjust="spacing" textLength="85.9536" x="347.209" y="162.0967">Remove student</text><line style="stroke:#181818;stroke-width:1;" x1="124.2031" x2="124.2031" y1="323.293" y2="355.293"/><line style="stroke:#181818;stroke-width:1;" x1="124.2031" x2="349.916" y1="355.293" y2="355.293"/><polygon fill="#181818" points="339.916,351.293,349.916,355.293,339.916,359.293,343.916,355.293" style="stroke:#181818;stroke-width:1;stroke-linejoin:miter;stroke-miterlimit:10;"/><line style="stroke:#181818;stroke-width:1;" x1="584.9219" x2="584.9219" y1="323.293" y2="355.293"/><line style="stroke:#181818;stroke-width:1;" x1="584.9219" x2="373.916" y1="355.293" y2="355.293"/><polygon fill="#181818" points="383.916,351.293,373.916,355.293,383.916,359.293,379.916,355.293" style="stroke:#181818;stroke-width:1;stroke-linejoin:miter;stroke-miterlimit:10;"/><line style="stroke:#181818;stroke-width:1;" x1="347.209" x2="347.209" y1="269.1602" y2="328.293"/><line style="stroke:#181818;stroke-width:1;" x1="347.209" x2="361.916" y1="328.293" y2="328.293"/><line style="stroke:#181818;stroke-width:1;" x1="361.916" x2="361.916" y1="328.293" y2="343.293"/><polygon fill="#181818" points="357.916,333.293,361.916,343.293,365.916,333.293,361.916,337.293" style="stroke:#181818;stroke-width:1;stroke-linejoin:miter;stroke-miterlimit:10;"/><line style="stroke:#181818;stroke-width:1;" x1="361.916" x2="361.916" y1="100.9844" y2="120.9844"/><polygon fill="#181818" points="357.916,110.9844,361.916,120.9844,365.916,110.9844,361.916,114.9844" style="stroke:#181818;stroke-width:1;stroke-linejoin:miter;stroke-miterlimit:10;"/><line style="stroke:#181818;stroke-width:1;" x1="978.3376" x2="818.8262" y1="399.293" y2="399.293"/><line style="stroke:#181818;stroke-width:1;" x1="818.8262" x2="818.8262" y1="399.293" y2="447.2031"/><polygon fill="#181818" points="814.8262,437.2031,818.8262,447.2031,822.8262,437.2031,818.8262,441.2031" style="stroke:#181818;stroke-width:1;stroke-linejoin:miter;stroke-miterlimit:10;"/><text fill="#000000" font-family="sans-serif" font-size="11" lengthAdjust="spacing" textLength="65.4575" x="818.8262" y="427.4053">Add student</text><line style="stroke:#181818;stroke-width:1;" x1="1123.5901" x2="1282.9521" y1="399.293" y2="399.293"/><line style="stroke:#181818;stroke-width:1;" x1="1282.9521" x2="1282.9521" y1="399.293" y2="447.2031"/><polygon fill="#181818" points="1278.9521,437.2031,1282.9521,447.2031,1286.9521,437.2031,1282.9521,441.2031" style="stroke:#181818;stroke-width:1;stroke-linejoin:miter;stroke-miterlimit:10;"/><text fill="#000000" font-family="sans-serif" font-size="11" lengthAdjust="spacing" textLength="81.2109" x="1282.9521" y="427.4053">Change project</text><line style="stroke:#181818;stroke-width:1;" x1="1050.9639" x2="1050.9639" y1="411.293" y2="423.263"/><line style="stroke:#181818;stroke-width:1;" x1="1050.9639" x2="1050.8145" y1="423.263" y2="423.263"/><line style="stroke:#181818;stroke-width:1;" x1="1050.8145" x2="1050.8145" y1="423.263" y2="447.2031"/><polygon fill="#181818" points="1046.8145,437.2031,1050.8145,447.2031,1054.8145,437.2031,1050.8145,441.2031" style="stroke:#181818;stroke-width:1;stroke-linejoin:miter;stroke-miterlimit:10;"/><text fill="#000000" font-family="sans-serif" font-size="11" lengthAdjust="spacing" textLength="85.9536" x="1050.8145" y="428.4053">Remove student</text><line style="stroke:#181818;stroke-width:1;" x1="818.8262" x2="818.8262" y1="481.3359" y2="513.3359"/><line style="stroke:#181818;stroke-width:1;" x1="818.8262" x2="1038.9639" y1="513.3359" y2="513.3359"/><polygon fill="#181818" points="1028.9639,509.3359,1038.9639,513.3359,1028.9639,517.3359,1032.9639,513.3359" style="stroke:#181818;stroke-width:1;stroke-linejoin:miter;stroke-miterlimit:10;"/><line style="stroke:#181818;stroke-width:1;" x1="1282.9521" x2="1282.9521" y1="481.3359" y2="513.3359"/><line style="stroke:#181818;stroke-width:1;" x1="1282.9521" x2="1062.9639" y1="513.3359" y2="513.3359"/><polygon fill="#181818" points="1072.9639,509.3359,1062.9639,513.3359,1072.9639,517.3359,1068.9639,513.3359" style="stroke:#181818;stroke-width:1;stroke-linejoin:miter;stroke-miterlimit:10;"/><line style="stroke:#181818;stroke-width:1;" x1="1050.8145" x2="1050.8145" y1="481.3359" y2="486.3359"/><line style="stroke:#181818;stroke-width:1;" x1="1050.8145" x2="1050.9639" y1="486.3359" y2="486.3359"/><line style="stroke:#181818;stroke-width:1;" x1="1050.9639" x2="1050.9639" y1="486.3359" y2="501.3359"/><polygon fill="#181818" points="1046.9639,491.3359,1050.9639,501.3359,1054.9639,491.3359,1050.9639,495.3359" style="stroke:#181818;stroke-width:1;stroke-linejoin:miter;stroke-miterlimit:10;"/><line style="stroke:#181818;stroke-width:1;" x1="1050.9639" x2="1050.9639" y1="525.3359" y2="545.3359"/><polygon fill="#181818" points="1046.9639,535.3359,1050.9639,545.3359,1054.9639,535.3359,1050.9639,539.3359" style="stroke:#181818;stroke-width:1;stroke-linejoin:miter;stroke-miterlimit:10;"/><line style="stroke:#181818;stroke-width:1;" x1="361.916" x2="361.916" y1="367.293" y2="372.293"/><line style="stroke:#181818;stroke-width:1;" x1="361.916" x2="1050.9639" y1="372.293" y2="372.293"/><line style="stroke:#181818;stroke-width:1;" x1="1050.9639" x2="1050.9639" y1="372.293" y2="387.293"/><polygon fill="#181818" points="1046.9639,377.293,1050.9639,387.293,1054.9639,377.293,1050.9639,381.293" style="stroke:#181818;stroke-width:1;stroke-linejoin:miter;stroke-miterlimit:10;"/><text fill="#000000" font-family="sans-serif" font-size="18" lengthAdjust="spacing" textLength="120.498" x="300.667" y="72.1875">Administrator</text><text fill="#000000" font-family="sans-serif" font-size="18" lengthAdjust="spacing" textLength="35.0771" x="1032.4253" y="72.1875">App</text><?plantuml-src nLJ1RXCn4BtlLmn2WdB83vGeKfgWS02fQa2S9-l9hedjCVPiqfLou2FuGhw4IRUaIv86LO0uxkpCUyzldlqi9gmyWiEM6u7iIJ1W8LOSmInn4-4wyMSg1Rv__GRloIyevTf6m63slzuOApPKHLxP436XXroZuOtMO8akK_4Icjj1bjRHO46L3RrMBCMkhRHNMAugPGncmeuJp6hEygcsGgUQEHbANUFSeT0iONkYRshHSp27sEz8gvFQBfSSpaprIAQOLZDsXi8Dc_vnA9YYs8wDjy5cIIYSjleTu_Qud0MJ57bZfQpXOavEpIC37lLxvnMfZw-A4ZF1nTWOoD8eePO0TeoN87Gh0rMhgzh28l56hGMu7Bw854hhHZ0dJ8hT1CpPLe7s6Far38VF7pmTZVQWYqQ4WmBkw3iurLcHZA0d0eJ195mAx8oCTt1ZPqkwSir9j9AzFyIRwC0AvhYc8wnhTFIXILyQjdc7rxbmeulIvYCZpcZ-TGIMYVr_43wfCLG4iRiXJzyWhj4wNBWzn9a5vhiWsGC_dEPkvqPqMFvKVOy5NJgy-lFFxT3xqGM-kByLVn3_t6OXhvgm4TOnFNAdg-Hg11-ZqOUWBmZy_hswq_QM0xLJslmsNd-TwB4uF87eaTtrg1wipiBn1m00?></g></svg>