<svg xmlns="http://www.w3.org/2000/svg" xmlns:xlink="http://www.w3.org/1999/xlink" contentStyleType="text/css" data-diagram-type="ACTIVITY" height="488px" preserveAspectRatio="none" style="width:493px;height:488px;background:#FFFFFF;" version="1.1" viewBox="0 0 493 488" width="493px" zoomAndPan="magnify"><?plantuml 1.2026.6?><defs/><g><g class="title" data-source-line="2"><text fill="#000000" font-family="sans-serif" font-size="14" font-weight="700" lengthAdjust="spacing" textLength="255.3564" x="117.9185" y="33.5352">Group Project &#8212; Poster Submission</text></g><rect fill="none" height="21.1992" style="stroke:none;stroke-width:1;" width="446.1934" x="20" y="54.7852"/><rect fill="#F1F1F1" height="34.1328" rx="12.5" ry="12.5" style="stroke:#181818;stroke-width:0.5;" width="168.7285" x="53.0703" y="283.3828"/><text fill="#000000" font-family="sans-serif" font-size="12" lengthAdjust="spacing" textLength="148.7285" x="63.0703" y="304.9844">Create poster submission</text><rect fill="#F1F1F1" height="34.1328" rx="12.5" ry="12.5" style="stroke:#181818;stroke-width:0.5;" width="205.7246" x="34.5723" y="337.5156"/><text fill="#000000" font-family="sans-serif" font-size="12" lengthAdjust="spacing" textLength="185.7246" x="44.5723" y="359.1172">Email poster receipt to students</text><rect fill="#F1F1F1" height="34.1328" rx="12.5" ry="12.5" style="stroke:#181818;stroke-width:0.5;" width="222.8691" x="26" y="391.6484"/><text fill="#000000" font-family="sans-serif" font-size="12" lengthAdjust="spacing" textLength="202.8691" x="36" y="413.25">Email marking notice to supervisor</text><ellipse cx="137.4346" cy="456.7813" fill="none" rx="11" ry="11" style="stroke:#222222;stroke-width:1;"/><ellipse cx="137.4346" cy="456.7813" fill="#222222" rx="6" ry="6" style="stroke:#222222;stroke-width:1;"/><line style="stroke:#000000;stroke-width:1.5;" x1="20" x2="20" y1="54.7852" y2="467.7813"/><ellipse cx="359.6074" cy="90.9844" fill="#222222" rx="10" ry="10" style="stroke:#222222;stroke-width:1;"/><rect fill="#F1F1F1" height="34.1328" rx="12.5" ry="12.5" style="stroke:#181818;stroke-width:0.5;" width="187.707" x="265.7539" y="120.9844"/><text fill="#000000" font-family="sans-serif" font-size="12" lengthAdjust="spacing" textLength="167.707" x="275.7539" y="142.5859">Open conference poster task</text><rect fill="#F1F1F1" height="34.1328" rx="12.5" ry="12.5" style="stroke:#181818;stroke-width:0.5;" width="169.543" x="274.8359" y="175.1172"/><text fill="#000000" font-family="sans-serif" font-size="12" lengthAdjust="spacing" textLength="149.543" x="284.8359" y="196.7188">Upload conference poster</text><rect fill="#F1F1F1" height="34.1328" rx="12.5" ry="12.5" style="stroke:#181818;stroke-width:0.5;" width="201.4766" x="258.8691" y="229.25"/><text fill="#000000" font-family="sans-serif" font-size="12" lengthAdjust="spacing" textLength="181.4766" x="268.8691" y="250.8516">Click Submit conference poster</text><line style="stroke:#000000;stroke-width:1.5;" x1="252.8691" x2="252.8691" y1="54.7852" y2="467.7813"/><line style="stroke:#000000;stroke-width:1.5;" x1="464.3457" x2="464.3457" y1="54.7852" y2="467.7813"/><line style="stroke:#181818;stroke-width:1;" x1="137.4346" x2="137.4346" y1="317.5156" y2="337.5156"/><polygon fill="#181818" points="133.4346,327.5156,137.4346,337.5156,141.4346,327.5156,137.4346,331.5156" style="stroke:#181818;stroke-width:1;stroke-linejoin:miter;stroke-miterlimit:10;"/><line style="stroke:#181818;stroke-width:1;" x1="137.4346" x2="137.4346" y1="371.6484" y2="391.6484"/><polygon fill="#181818" points="133.4346,381.6484,137.4346,391.6484,141.4346,381.6484,137.4346,385.6484" style="stroke:#181818;stroke-width:1;stroke-linejoin:miter;stroke-miterlimit:10;"/><line style="stroke:#181818;stroke-width:1;" x1="137.4346" x2="137.4346" y1="425.7813" y2="445.7813"/><polygon fill="#181818" points="133.4346,435.7813,137.4346,445.7813,141.4346,435.7813,137.4346,439.7813" style="stroke:#181818;stroke-width:1;stroke-linejoin:miter;stroke-miterlimit:10;"/><line style="stroke:#181818;stroke-width:1;" x1="359.6074" x2="359.6074" y1="100.9844" y2="120.9844"/><polygon fill="#181818" points="355.6074,110.9844,359.6074,120.9844,363.6074,110.9844,359.6074,114.9844" style="stroke:#181818;stroke-width:1;stroke-linejoin:miter;stroke-miterlimit:10;"/><line style="stroke:#181818;stroke-width:1;" x1="359.6074" x2="359.6074" y1="155.1172" y2="175.1172"/><polygon fill="#181818" points="355.6074,165.1172,359.6074,175.1172,363.6074,165.1172,359.6074,169.1172" style="stroke:#181818;stroke-width:1;stroke-linejoin:miter;stroke-miterlimit:10;"/><line style="stroke:#181818;stroke-width:1;" x1="359.6074" x2="359.6074" y1="209.25" y2="229.25"/><polygon fill="#181818" points="355.6074,219.25,359.6074,229.25,363.6074,219.25,359.6074,223.25" style="stroke:#181818;stroke-width:1;stroke-linejoin:miter;stroke-miterlimit:10;"/><line style="stroke:#181818;stroke-width:1;" x1="359.6074" x2="359.6074" y1="263.3828" y2="268.3828"/><line style="stroke:#181818;stroke-width:1;" x1="359.6074" x2="137.4346" y1="268.3828" y2="268.3828"/><line style="stroke:#181818;stroke-width:1;" x1="137.4346" x2="137.4346" y1="268.3828" y2="283.3828"/><polygon fill="#181818" points="133.4346,273.3828,137.4346,283.3828,141.4346,273.3828,137.4346,277.3828" style="stroke:#181818;stroke-width:1;stroke-linejoin:miter;stroke-miterlimit:10;"/><text fill="#000000" font-family="sans-serif" font-size="18" lengthAdjust="spacing" textLength="35.0771" x="118.896" y="72.1875">App</text><text fill="#000000" font-family="sans-serif" font-size="18" lengthAdjust="spacing" textLength="66.8584" x="325.1782" y="72.1875">Student</text><?plantuml-src ROz1IWH134NtTOfuZNObWxXqOF00iJepKtPL4fBKYD0B3-49FOazD3O3kWkypty_TsfuQWWLFwG7UAD0nXGbAi6JILVOcxnH3lZ-_8AzU931eR-subw4aq-55GqRD679PvD64DRfXlWPHtalV88ZLgUKvWVLESs7w2DnpEdcz42BD3mhCMJX8nbn9j1L7EZJVHfUj0gEV_c2ThNaQHqO_mLMzR0pmjXgVVjdQNXiMEelCSfKD204V9teMwIXJTUdMA8iXckaAzcbk2mY3z4V?></g></svg>