<svg xmlns="http://www.w3.org/2000/svg" xmlns:xlink="http://www.w3.org/1999/xlink" contentStyleType="text/css" data-diagram-type="ACTIVITY" height="525px" preserveAspectRatio="none" style="width:2019px;height:525px;background:#FFFFFF;" version="1.1" viewBox="0 0 2019 525" width="2019px" zoomAndPan="magnify"><?plantuml 1.2026.6?><defs/><g><g class="title" data-source-line="2"><text fill="#000000" font-family="sans-serif" font-size="14" font-weight="700" lengthAdjust="spacing" textLength="301.4854" x="858.0884" y="33.5352">Group Project &#8212; Rank Project Preferences</text></g><rect fill="none" height="21.1992" style="stroke:none;stroke-width:1;" width="1972.6621" x="20" y="54.7852"/><rect fill="#F0FFF0" height="34.1328" rx="12.5" ry="12.5" style="stroke:#708090;stroke-width:0.5;" width="213.8027" x="26" y="338.1816"/><path d="M40.5,351.3145 L40,352.5045 C39.9,352.5345 39.81,352.5845 39.72,352.6345 L38.53,352.1345 L37.81,352.8545 L38.31,354.0445 C38.26,354.1445 38.22,354.2245 38.18,354.3245 L36.99,354.8245 L36.99,355.8245 L38.18,356.3245 C38.22,356.4245 38.26,356.5045 38.31,356.6045 L37.81,357.7945 L38.53,358.5145 L39.72,358.0145 C39.81,358.0545 39.9,358.1045 40,358.1445 L40.5,359.3345 L41.5,359.3345 L42,358.1445 C42.09,358.1045 42.19,358.0645 42.28,358.0145 L43.47,358.5145 L44.19,357.7945 L43.69,356.6045 C43.73,356.5145 43.78,356.4145 43.82,356.3245 L45.01,355.8245 L45.01,354.8245 L43.82,354.3245 C43.79,354.2345 43.74,354.1345 43.69,354.0445 L44.19,352.8545 L43.47,352.1345 L42.28,352.6345 C42.19,352.5945 42.09,352.5445 42,352.5045 L41.5,351.3145 L40.5,351.3145 M41,353.8145 C41.83,353.8145 42.5,354.4845 42.5,355.3145 C42.5,356.1445 41.83,356.8145 41,356.8145 C40.17,356.8145 39.5,356.1445 39.5,355.3145 C39.5,354.4845 40.17,353.8145 41,353.8145" fill="#000000"/><text fill="#000000" font-family="sans-serif" font-size="12" lengthAdjust="spacing" textLength="180.0059" x="49.7969" y="359.7832">Create draft project preference</text><rect fill="#F0FFF0" height="34.1328" rx="12.5" ry="12.5" style="stroke:#708090;stroke-width:0.5;" width="215.332" x="249.8027" y="279.0273"/><path d="M264.3027,292.1602 L263.8027,293.3502 C263.7027,293.3802 263.6127,293.4302 263.5227,293.4802 L262.3327,292.9802 L261.6127,293.7002 L262.1127,294.8902 C262.0627,294.9902 262.0227,295.0702 261.9827,295.1702 L260.7927,295.6702 L260.7927,296.6702 L261.9827,297.1702 C262.0227,297.2702 262.0627,297.3502 262.1127,297.4502 L261.6127,298.6402 L262.3327,299.3602 L263.5227,298.8602 C263.6127,298.9002 263.7027,298.9502 263.8027,298.9902 L264.3027,300.1802 L265.3027,300.1802 L265.8027,298.9902 C265.8927,298.9502 265.9927,298.9102 266.0827,298.8602 L267.2727,299.3602 L267.9927,298.6402 L267.4927,297.4502 C267.5327,297.3602 267.5827,297.2602 267.6227,297.1702 L268.8127,296.6702 L268.8127,295.6702 L267.6227,295.1702 C267.5927,295.0802 267.5427,294.9802 267.4927,294.8902 L267.9927,293.7002 L267.2727,292.9802 L266.0827,293.4802 C265.9927,293.4402 265.8927,293.3902 265.8027,293.3502 L265.3027,292.1602 L264.3027,292.1602 M264.8027,294.6602 C265.6327,294.6602 266.3027,295.3302 266.3027,296.1602 C266.3027,296.9902 265.6327,297.6602 264.8027,297.6602 C263.9727,297.6602 263.3027,296.9902 263.3027,296.1602 C263.3027,295.3302 263.9727,294.6602 264.8027,294.6602" fill="#000000"/><text fill="#000000" font-family="sans-serif" font-size="12" lengthAdjust="spacing" textLength="181.5352" x="273.5996" y="300.6289">Update project preference rank</text><rect fill="#FFE4E1" height="34.1328" rx="12.5" ry="12.5" style="stroke:#708090;stroke-width:0.5;" width="213.1055" x="475.1348" y="279.0273"/><path d="M489.2248,292.1602 C489.1648,292.1602 489.1248,292.2002 489.0948,292.2502 L486.1548,299.0602 C486.1348,299.1102 486.1248,299.1902 486.1248,299.2502 L486.1248,300.0602 C486.1248,300.1102 486.1648,300.1502 486.2148,300.1502 L493.0248,300.1502 C493.0748,300.1502 493.1148,300.1102 493.1148,300.0602 L493.1148,299.2502 C493.1148,299.2002 493.1048,299.1102 493.0848,299.0602 L490.1448,292.2502 C490.1248,292.2002 490.0748,292.1602 490.0148,292.1602 L489.2048,292.1602 M489.1348,295.1602 L490.1348,295.1602 L490.1348,297.1602 L489.1348,297.1602 L489.1348,295.1602 M489.1348,298.1602 L490.1348,298.1602 L490.1348,299.1602 L489.1348,299.1602 L489.1348,298.1602" fill="#000000"/><text fill="#000000" font-family="sans-serif" font-size="12" lengthAdjust="spacing" textLength="179.3086" x="498.9316" y="300.6289">Delete draft project preference</text><rect fill="#F0FFF0" height="34.1328" rx="12.5" ry="12.5" style="stroke:#708090;stroke-width:0.5;" width="253.7402" x="698.2402" y="279.0273"/><path d="M712.7402,292.1602 L712.2402,293.3502 C712.1402,293.3802 712.0502,293.4302 711.9602,293.4802 L710.7702,292.9802 L710.0502,293.7002 L710.5502,294.8902 C710.5002,294.9902 710.4602,295.0702 710.4202,295.1702 L709.2302,295.6702 L709.2302,296.6702 L710.4202,297.1702 C710.4602,297.2702 710.5002,297.3502 710.5502,297.4502 L710.0502,298.6402 L710.7702,299.3602 L711.9602,298.8602 C712.0502,298.9002 712.1402,298.9502 712.2402,298.9902 L712.7402,300.1802 L713.7402,300.1802 L714.2402,298.9902 C714.3302,298.9502 714.4302,298.9102 714.5202,298.8602 L715.7102,299.3602 L716.4302,298.6402 L715.9302,297.4502 C715.9702,297.3602 716.0202,297.2602 716.0602,297.1702 L717.2502,296.6702 L717.2502,295.6702 L716.0602,295.1702 C716.0302,295.0802 715.9802,294.9802 715.9302,294.8902 L716.4302,293.7002 L715.7102,292.9802 L714.5202,293.4802 C714.4302,293.4402 714.3302,293.3902 714.2402,293.3502 L713.7402,292.1602 L712.7402,292.1602 M713.2402,294.6602 C714.0702,294.6602 714.7402,295.3302 714.7402,296.1602 C714.7402,296.9902 714.0702,297.6602 713.2402,297.6602 C712.4102,297.6602 711.7402,296.9902 711.7402,296.1602 C711.7402,295.3302 712.4102,294.6602 713.2402,294.6602" fill="#000000"/><text fill="#000000" font-family="sans-serif" font-size="12" lengthAdjust="spacing" textLength="219.9434" x="722.0371" y="300.6289">Set &#8220;Preference Status&#8221; to &#8220;Submitted&#8221;</text><line style="stroke:#000000;stroke-width:1.5;" x1="20" x2="20" y1="54.7852" y2="504.4492"/><ellipse cx="1483.1357" cy="90.9844" fill="#222222" rx="10" ry="10" style="stroke:#222222;stroke-width:1;"/><polygon fill="#FFFACD" points="1414.6274,164.9844,1551.644,164.9844,1563.644,176.9844,1551.644,188.9844,1414.6274,188.9844,1402.6274,176.9844,1414.6274,164.9844" style="stroke:#B8860B;stroke-width:0.5;stroke-linejoin:miter;stroke-miterlimit:10;"/><text fill="#000000" font-family="sans-serif" font-size="11" lengthAdjust="spacing" textLength="137.0166" x="1414.6274" y="181.1416">Select &#8220;Preference Action&#8221;</text><rect fill="#F8F8FF" height="34.1328" rx="12.5" ry="12.5" style="stroke:#708090;stroke-width:0.5;" width="193.8105" x="961.9805" y="224.8945"/><path d="M973.3205,238.0273 A0.5,0.5 0 0 0 972.9805,238.5273 L972.9805,245.5273 A0.5,0.5 0 0 0 973.4805,246.0273 L980.4805,246.0273 A0.5,0.5 0 0 0 980.9805,245.5273 L980.9805,238.5273 A0.5,0.5 0 0 0 980.4805,238.0273 L973.4805,238.0273 A0.5,0.5 0 0 0 973.3905,238.0273 A0.5,0.5 0 0 0 973.3305,238.0273 M974.4805,239.0273 C974.7605,239.0273 974.9805,239.2473 974.9805,239.5273 C974.9805,239.8073 974.7605,240.0273 974.4805,240.0273 C974.2005,240.0273 973.9805,239.8073 973.9805,239.5273 C973.9805,239.2473 974.2005,239.0273 974.4805,239.0273 M976.4805,239.0273 L979.4805,239.0273 C979.7605,239.0273 979.9805,239.2473 979.9805,239.5273 C979.9805,239.8073 979.7605,240.0273 979.4805,240.0273 L976.4805,240.0273 C976.2005,240.0273 975.9805,239.8073 975.9805,239.5273 C975.9805,239.2473 976.2005,239.0273 976.4805,239.0273 M973.9805,241.0273 L979.9805,241.0273 L979.9805,245.0273 L973.9805,245.0273 L973.9805,241.0273" fill="#000000"/><text fill="#000000" font-family="sans-serif" font-size="12" lengthAdjust="spacing" textLength="160.0137" x="985.7773" y="246.4961">Open page &#8220;Project Details&#8221;</text><rect fill="#AFEEEE" height="34.1328" rx="12.5" ry="12.5" style="stroke:#708090;stroke-width:0.5;" width="185.6895" x="966.041" y="279.0273"/><path d="M981.041,292.1602 C978.841,292.1602 977.041,293.9602 977.041,296.1602 C977.041,298.3602 978.841,300.1602 981.041,300.1602 C983.241,300.1602 985.041,298.3602 985.041,296.1602 C985.041,293.9602 983.241,292.1602 981.041,292.1602 M981.041,293.1602 C982.701,293.1602 984.041,294.5002 984.041,296.1602 C984.041,297.8202 982.701,299.1602 981.041,299.1602 C979.381,299.1602 978.041,297.8202 978.041,296.1602 C978.041,294.5002 979.381,293.1602 981.041,293.1602 M981.041,294.1602 C979.941,294.1602 979.041,295.0602 979.041,296.1602 C979.041,297.2602 979.941,298.1602 981.041,298.1602 C982.141,298.1602 983.041,297.2602 983.041,296.1602 C983.041,295.0602 982.141,294.1602 981.041,294.1602 M981.041,295.1602 C981.601,295.1602 982.041,295.6002 982.041,296.1602 C982.041,296.7202 981.601,297.1602 981.041,297.1602 C980.481,297.1602 980.041,296.7202 980.041,296.1602 C980.041,295.6002 980.481,295.1602 981.041,295.1602" fill="#000000"/><text fill="#000000" font-family="sans-serif" font-size="12" lengthAdjust="spacing" textLength="151.8926" x="989.8379" y="300.6289">Click &#8220;Add to Preferences&#8221;</text><rect fill="#F0F8FF" height="34.1328" rx="12.5" ry="12.5" style="stroke:#708090;stroke-width:0.5;" width="344.7949" x="1165.791" y="224.8945"/><path d="M1180.291,238.0273 L1178.791,239.5273 L1179.791,239.5273 L1179.791,241.0273 L1178.291,241.0273 L1178.291,240.0273 L1176.791,241.5273 L1178.291,243.0273 L1178.291,242.0273 L1179.791,242.0273 L1179.791,243.5273 L1178.791,243.5273 L1180.291,245.0273 L1181.791,243.5273 L1180.791,243.5273 L1180.791,242.0273 L1182.291,242.0273 L1182.291,243.0273 L1183.791,241.5273 L1182.291,240.0273 L1182.291,241.0273 L1180.791,241.0273 L1180.791,239.5273 L1181.791,239.5273 L1180.291,238.0273" fill="#000000"/><text fill="#000000" font-family="sans-serif" font-size="12" lengthAdjust="spacing" textLength="310.998" x="1189.5879" y="246.4961">Drag &#8220;Project Preference&#8221; within &#8220;Preference Ranking&#8221;</text><rect fill="#AFEEEE" height="34.1328" rx="12.5" ry="12.5" style="stroke:#708090;stroke-width:0.5;" width="229.957" x="1530.5859" y="224.8945"/><path d="M1545.5859,238.0273 C1543.3859,238.0273 1541.5859,239.8273 1541.5859,242.0273 C1541.5859,244.2273 1543.3859,246.0273 1545.5859,246.0273 C1547.7859,246.0273 1549.5859,244.2273 1549.5859,242.0273 C1549.5859,239.8273 1547.7859,238.0273 1545.5859,238.0273 M1545.5859,239.0273 C1547.2459,239.0273 1548.5859,240.3673 1548.5859,242.0273 C1548.5859,243.6873 1547.2459,245.0273 1545.5859,245.0273 C1543.9259,245.0273 1542.5859,243.6873 1542.5859,242.0273 C1542.5859,240.3673 1543.9259,239.0273 1545.5859,239.0273 M1545.5859,240.0273 C1544.4859,240.0273 1543.5859,240.9273 1543.5859,242.0273 C1543.5859,243.1273 1544.4859,244.0273 1545.5859,244.0273 C1546.6859,244.0273 1547.5859,243.1273 1547.5859,242.0273 C1547.5859,240.9273 1546.6859,240.0273 1545.5859,240.0273 M1545.5859,241.0273 C1546.1459,241.0273 1546.5859,241.4673 1546.5859,242.0273 C1546.5859,242.5873 1546.1459,243.0273 1545.5859,243.0273 C1545.0259,243.0273 1544.5859,242.5873 1544.5859,242.0273 C1544.5859,241.4673 1545.0259,241.0273 1545.5859,241.0273" fill="#000000"/><text fill="#000000" font-family="sans-serif" font-size="12" lengthAdjust="spacing" textLength="196.1602" x="1554.3828" y="246.4961">Click &#8220;Remove Project Preference&#8221;</text><rect fill="#AFEEEE" height="34.1328" rx="12.5" ry="12.5" style="stroke:#708090;stroke-width:0.5;" width="187.2715" x="1770.543" y="224.8945"/><path d="M1785.543,238.0273 C1783.343,238.0273 1781.543,239.8273 1781.543,242.0273 C1781.543,244.2273 1783.343,246.0273 1785.543,246.0273 C1787.743,246.0273 1789.543,244.2273 1789.543,242.0273 C1789.543,239.8273 1787.743,238.0273 1785.543,238.0273 M1785.543,239.0273 C1787.203,239.0273 1788.543,240.3673 1788.543,242.0273 C1788.543,243.6873 1787.203,245.0273 1785.543,245.0273 C1783.883,245.0273 1782.543,243.6873 1782.543,242.0273 C1782.543,240.3673 1783.883,239.0273 1785.543,239.0273 M1785.543,240.0273 C1784.443,240.0273 1783.543,240.9273 1783.543,242.0273 C1783.543,243.1273 1784.443,244.0273 1785.543,244.0273 C1786.643,244.0273 1787.543,243.1273 1787.543,242.0273 C1787.543,240.9273 1786.643,240.0273 1785.543,240.0273 M1785.543,241.0273 C1786.103,241.0273 1786.543,241.4673 1786.543,242.0273 C1786.543,242.5873 1786.103,243.0273 1785.543,243.0273 C1784.983,243.0273 1784.543,242.5873 1784.543,242.0273 C1784.543,241.4673 1784.983,241.0273 1785.543,241.0273" fill="#000000"/><text fill="#000000" font-family="sans-serif" font-size="12" lengthAdjust="spacing" textLength="153.4746" x="1794.3398" y="246.4961">Click &#8220;Submit Preferences&#8221;</text><polygon fill="#FFFACD" points="1483.1357,382.3145,1483.1357,382.3145,1495.1357,394.3145,1483.1357,406.3145,1483.1357,406.3145,1471.1357,394.3145,1483.1357,382.3145" style="stroke:#B8860B;stroke-width:0.5;stroke-linejoin:miter;stroke-miterlimit:10;"/><polygon fill="#FFFACD" points="1483.1357,120.9844,1495.1357,132.9844,1483.1357,144.9844,1471.1357,132.9844,1483.1357,120.9844" style="stroke:#B8860B;stroke-width:0.5;stroke-linejoin:miter;stroke-miterlimit:10;"/><polygon fill="#FFFACD" points="1392.8289,426.3145,1573.4426,426.3145,1585.4426,438.3145,1573.4426,450.3145,1392.8289,450.3145,1380.8289,438.3145,1392.8289,426.3145" style="stroke:#B8860B;stroke-width:0.5;stroke-linejoin:miter;stroke-miterlimit:10;"/><text fill="#000000" font-family="sans-serif" font-size="11" lengthAdjust="spacing" textLength="14.8833" x="1487.1357" y="460.9492">No</text><text fill="#000000" font-family="sans-serif" font-size="11" lengthAdjust="spacing" textLength="180.6138" x="1392.8289" y="442.4717">Is preference submission pending</text><text fill="#000000" font-family="sans-serif" font-size="11" lengthAdjust="spacing" textLength="18.5894" x="1585.4426" y="435.9941">Yes</text><ellipse cx="1483.1357" cy="493.4492" fill="none" rx="11" ry="11" style="stroke:#222222;stroke-width:1;"/><ellipse cx="1483.1357" cy="493.4492" fill="#222222" rx="6" ry="6" style="stroke:#222222;stroke-width:1;"/><line style="stroke:#000000;stroke-width:1.5;" x1="955.9805" x2="955.9805" y1="54.7852" y2="504.4492"/><line style="stroke:#000000;stroke-width:1.5;" x1="1990.8145" x2="1990.8145" y1="54.7852" y2="504.4492"/><line style="stroke:#181818;stroke-width:1;" x1="1058.8857" x2="1058.8857" y1="259.0273" y2="279.0273"/><polygon fill="#181818" points="1054.8857,269.0273,1058.8857,279.0273,1062.8857,269.0273,1058.8857,273.0273" style="stroke:#181818;stroke-width:1;stroke-linejoin:miter;stroke-miterlimit:10;"/><line style="stroke:#181818;stroke-width:1;" x1="1402.6274" x2="1058.8857" y1="176.9844" y2="176.9844"/><line style="stroke:#181818;stroke-width:1;" x1="1058.8857" x2="1058.8857" y1="176.9844" y2="224.8945"/><polygon fill="#181818" points="1054.8857,214.8945,1058.8857,224.8945,1062.8857,214.8945,1058.8857,218.8945" style="stroke:#181818;stroke-width:1;stroke-linejoin:miter;stroke-miterlimit:10;"/><text fill="#000000" font-family="sans-serif" font-size="11" lengthAdjust="spacing" textLength="70.2217" x="1058.8857" y="205.0967">&#8220;Add Project&#8221;</text><line style="stroke:#181818;stroke-width:1;" x1="1563.644" x2="1864.1787" y1="176.9844" y2="176.9844"/><line style="stroke:#181818;stroke-width:1;" x1="1864.1787" x2="1864.1787" y1="176.9844" y2="224.8945"/><polygon fill="#181818" points="1860.1787,214.8945,1864.1787,224.8945,1868.1787,214.8945,1864.1787,218.8945" style="stroke:#181818;stroke-width:1;stroke-linejoin:miter;stroke-miterlimit:10;"/><text fill="#000000" font-family="sans-serif" font-size="11" lengthAdjust="spacing" textLength="45.9819" x="1864.1787" y="205.0967">&#8220;Submit&#8221;</text><line style="stroke:#181818;stroke-width:1;" x1="1338.1885" x2="1338.1885" y1="176.9844" y2="224.8945"/><polygon fill="#181818" points="1334.1885,214.8945,1338.1885,224.8945,1342.1885,214.8945,1338.1885,218.8945" style="stroke:#181818;stroke-width:1;stroke-linejoin:miter;stroke-miterlimit:10;"/><text fill="#000000" font-family="sans-serif" font-size="11" lengthAdjust="spacing" textLength="50.6387" x="1338.1885" y="200.0967">&#8220;Reorder&#8221;</text><line style="stroke:#181818;stroke-width:1;" x1="1645.5645" x2="1645.5645" y1="176.9844" y2="224.8945"/><polygon fill="#181818" points="1641.5645,214.8945,1645.5645,224.8945,1649.5645,214.8945,1645.5645,218.8945" style="stroke:#181818;stroke-width:1;stroke-linejoin:miter;stroke-miterlimit:10;"/><text fill="#000000" font-family="sans-serif" font-size="11" lengthAdjust="spacing" textLength="50.6763" x="1645.5645" y="200.0967">&#8220;Remove&#8221;</text><line style="stroke:#181818;stroke-width:1;" x1="1483.1357" x2="1483.1357" y1="144.9844" y2="164.9844"/><polygon fill="#181818" points="1479.1357,154.9844,1483.1357,164.9844,1487.1357,154.9844,1483.1357,158.9844" style="stroke:#181818;stroke-width:1;stroke-linejoin:miter;stroke-miterlimit:10;"/><line style="stroke:#181818;stroke-width:1;" x1="1585.4426" x2="1971.8145" y1="438.3145" y2="438.3145"/><polygon fill="#181818" points="1967.8145,333.1602,1971.8145,323.1602,1975.8145,333.1602,1971.8145,329.1602" style="stroke:#181818;stroke-width:1;stroke-linejoin:miter;stroke-miterlimit:10;"/><line style="stroke:#181818;stroke-width:1;" x1="1971.8145" x2="1971.8145" y1="132.9844" y2="438.3145"/><line style="stroke:#181818;stroke-width:1;" x1="1971.8145" x2="1495.1357" y1="132.9844" y2="132.9844"/><polygon fill="#181818" points="1505.1357,128.9844,1495.1357,132.9844,1505.1357,136.9844,1501.1357,132.9844" style="stroke:#181818;stroke-width:1;stroke-linejoin:miter;stroke-miterlimit:10;"/><line style="stroke:#181818;stroke-width:1;" x1="1483.1357" x2="1483.1357" y1="406.3145" y2="426.3145"/><polygon fill="#181818" points="1479.1357,416.3145,1483.1357,426.3145,1487.1357,416.3145,1483.1357,420.3145" style="stroke:#181818;stroke-width:1;stroke-linejoin:miter;stroke-miterlimit:10;"/><line style="stroke:#181818;stroke-width:1;" x1="1483.1357" x2="1483.1357" y1="100.9844" y2="120.9844"/><polygon fill="#181818" points="1479.1357,110.9844,1483.1357,120.9844,1487.1357,110.9844,1483.1357,114.9844" style="stroke:#181818;stroke-width:1;stroke-linejoin:miter;stroke-miterlimit:10;"/><line style="stroke:#181818;stroke-width:1;" x1="1483.1357" x2="1483.1357" y1="450.3145" y2="482.4492"/><polygon fill="#181818" points="1479.1357,472.4492,1483.1357,482.4492,1487.1357,472.4492,1483.1357,476.4492" style="stroke:#181818;stroke-width:1;stroke-linejoin:miter;stroke-miterlimit:10;"/><line style="stroke:#181818;stroke-width:1;" x1="1058.8857" x2="1058.8857" y1="313.1602" y2="320.6816"/><line style="stroke:#181818;stroke-width:1;" x1="1058.8857" x2="132.9014" y1="320.6816" y2="320.6816"/><line style="stroke:#181818;stroke-width:1;" x1="132.9014" x2="132.9014" y1="320.6816" y2="338.1816"/><polygon fill="#181818" points="128.9014,328.1816,132.9014,338.1816,136.9014,328.1816,132.9014,332.1816" style="stroke:#181818;stroke-width:1;stroke-linejoin:miter;stroke-miterlimit:10;"/><line style="stroke:#181818;stroke-width:1;" x1="1338.1885" x2="1338.1885" y1="259.0273" y2="264.0273"/><line style="stroke:#181818;stroke-width:1;" x1="1338.1885" x2="357.4688" y1="264.0273" y2="264.0273"/><line style="stroke:#181818;stroke-width:1;" x1="357.4688" x2="357.4688" y1="264.0273" y2="279.0273"/><polygon fill="#181818" points="353.4688,269.0273,357.4688,279.0273,361.4688,269.0273,357.4688,273.0273" style="stroke:#181818;stroke-width:1;stroke-linejoin:miter;stroke-miterlimit:10;"/><line style="stroke:#181818;stroke-width:1;" x1="1645.5645" x2="1645.5645" y1="259.0273" y2="264.0273"/><line style="stroke:#181818;stroke-width:1;" x1="1645.5645" x2="581.6875" y1="264.0273" y2="264.0273"/><line style="stroke:#181818;stroke-width:1;" x1="581.6875" x2="581.6875" y1="264.0273" y2="279.0273"/><polygon fill="#181818" points="577.6875,269.0273,581.6875,279.0273,585.6875,269.0273,581.6875,273.0273" style="stroke:#181818;stroke-width:1;stroke-linejoin:miter;stroke-miterlimit:10;"/><line style="stroke:#181818;stroke-width:1;" x1="1864.1787" x2="1864.1787" y1="259.0273" y2="264.0273"/><line style="stroke:#181818;stroke-width:1;" x1="1864.1787" x2="825.1104" y1="264.0273" y2="264.0273"/><line style="stroke:#181818;stroke-width:1;" x1="825.1104" x2="825.1104" y1="264.0273" y2="279.0273"/><polygon fill="#181818" points="821.1104,269.0273,825.1104,279.0273,829.1104,269.0273,825.1104,273.0273" style="stroke:#181818;stroke-width:1;stroke-linejoin:miter;stroke-miterlimit:10;"/><line style="stroke:#181818;stroke-width:1;" x1="132.9014" x2="132.9014" y1="372.3145" y2="394.3145"/><line style="stroke:#181818;stroke-width:1;" x1="132.9014" x2="1471.1357" y1="394.3145" y2="394.3145"/><polygon fill="#181818" points="1461.1357,390.3145,1471.1357,394.3145,1461.1357,398.3145,1465.1357,394.3145" style="stroke:#181818;stroke-width:1;stroke-linejoin:miter;stroke-miterlimit:10;"/><line style="stroke:#181818;stroke-width:1;" x1="357.4688" x2="357.4688" y1="313.1602" y2="394.3145"/><line style="stroke:#181818;stroke-width:1;" x1="357.4688" x2="1471.1357" y1="394.3145" y2="394.3145"/><polygon fill="#181818" points="1461.1357,390.3145,1471.1357,394.3145,1461.1357,398.3145,1465.1357,394.3145" style="stroke:#181818;stroke-width:1;stroke-linejoin:miter;stroke-miterlimit:10;"/><line style="stroke:#181818;stroke-width:1;" x1="581.6875" x2="581.6875" y1="313.1602" y2="394.3145"/><line style="stroke:#181818;stroke-width:1;" x1="581.6875" x2="1471.1357" y1="394.3145" y2="394.3145"/><polygon fill="#181818" points="1461.1357,390.3145,1471.1357,394.3145,1461.1357,398.3145,1465.1357,394.3145" style="stroke:#181818;stroke-width:1;stroke-linejoin:miter;stroke-miterlimit:10;"/><line style="stroke:#181818;stroke-width:1;" x1="825.1104" x2="825.1104" y1="313.1602" y2="394.3145"/><line style="stroke:#181818;stroke-width:1;" x1="825.1104" x2="1471.1357" y1="394.3145" y2="394.3145"/><polygon fill="#181818" points="1461.1357,390.3145,1471.1357,394.3145,1461.1357,398.3145,1465.1357,394.3145" style="stroke:#181818;stroke-width:1;stroke-linejoin:miter;stroke-miterlimit:10;"/><text fill="#000000" font-family="sans-serif" font-size="18" lengthAdjust="spacing" textLength="35.0771" x="470.4517" y="72.1875">App</text><text fill="#000000" font-family="sans-serif" font-size="18" lengthAdjust="spacing" textLength="66.8584" x="1439.9683" y="72.1875">Student</text><?plantuml-src jLJBZjD04BpxAneXGNBO7rYYIDb42aWyLWa8SUnuElOGUzhCjDTOoc4_WYFyt7u9xJXEJ8Z2Gt2pn-sggQhkVbHuJ7A436ik1K9EWWuZiP8Hp3sN1Tnw_aYnmCFz5rYWsnmERZsjoPEBAKHXOrs17dC8AHgkh4jWZLcWw2cKdw-2r1bThIYnhbUAiTWxA_KDnfj4kPoPSiOUvYa7UPzQeNF5x0tvjd2PeT3SOtscRcOnPsTEiL-IdavJkrwpk_1NZsI6VZFdp91RiEdB8MUYQ3ifYcsqNKgf1RADUez1q4lagI2K221KLk8K1alAMZk_7Ws4YVApUxZ_DjJA60F1G0icndHkxpy17F6Rj-Owrr1WGh25bUTA7M_EhqTFsZS_XZS5kRPanzc6DzEWRHOKzXcCHe-Fbe_7FU1LAS9EeMFESoiTj0fBICOmpMoyWVr5XViTqG7VOaPlI_-fP1iwxDQp8qkeWr2kB5WAvzWuqJ75d2YDLmS9ZCUrGB4NK1ouTZpFsL4zesf7SJ1mGRiWBvgdi8boapdgo_cEnZ1hFlGiEwfJFD0qK-jEOcpcGrk_4pzHV-WcA_zM-Bl2DC9_bWnUYIxgRYHSbFsxqRPGSDQ4Fq_OK11VDiDswDCAlLFFr6yTZ5_5_Chgx2ruJtJGkonNgk6Vw6sX_bShB-bqyfU2KZOSpG0T-8LCH_j3mhfpsZqIzLMsEmQgrEhM7hm8_Ku93Lu8UX7GFM3KwI7O08CF58RWM63mceUwgxZu3W00?></g></svg>