<svg xmlns="http://www.w3.org/2000/svg" xmlns:xlink="http://www.w3.org/1999/xlink" contentStyleType="text/css" data-diagram-type="ACTIVITY" height="621px" preserveAspectRatio="none" style="width:425px;height:621px;background:#FFFFFF;" version="1.1" viewBox="0 0 425 621" width="425px" zoomAndPan="magnify"><?plantuml 1.2026.6?><defs/><g><g class="title" data-source-line="2"><text fill="#000000" font-family="sans-serif" font-size="14" font-weight="700" lengthAdjust="spacing" textLength="236.6738" x="93.5459" y="33.5352">Group Project &#8212; Browse Projects</text></g><ellipse cx="210.8828" cy="62.4883" fill="#222222" rx="10" ry="10" style="stroke:#222222;stroke-width:1;"/><rect fill="#F8F8FF" height="34.1328" rx="12.5" ry="12.5" style="stroke:#708090;stroke-width:0.5;" width="212.4668" x="104.6494" y="92.4883"/><path d="M115.9894,105.6211 A0.5,0.5 0 0 0 115.6494,106.1211 L115.6494,113.1211 A0.5,0.5 0 0 0 116.1494,113.6211 L123.1494,113.6211 A0.5,0.5 0 0 0 123.6494,113.1211 L123.6494,106.1211 A0.5,0.5 0 0 0 123.1494,105.6211 L116.1494,105.6211 A0.5,0.5 0 0 0 116.0594,105.6211 A0.5,0.5 0 0 0 115.9994,105.6211 M117.1494,106.6211 C117.4294,106.6211 117.6494,106.8411 117.6494,107.1211 C117.6494,107.4011 117.4294,107.6211 117.1494,107.6211 C116.8694,107.6211 116.6494,107.4011 116.6494,107.1211 C116.6494,106.8411 116.8694,106.6211 117.1494,106.6211 M119.1494,106.6211 L122.1494,106.6211 C122.4294,106.6211 122.6494,106.8411 122.6494,107.1211 C122.6494,107.4011 122.4294,107.6211 122.1494,107.6211 L119.1494,107.6211 C118.8694,107.6211 118.6494,107.4011 118.6494,107.1211 C118.6494,106.8411 118.8694,106.6211 119.1494,106.6211 M116.6494,108.6211 L122.6494,108.6211 L122.6494,112.6211 L116.6494,112.6211 L116.6494,108.6211" fill="#000000"/><text fill="#000000" font-family="sans-serif" font-size="12" lengthAdjust="spacing" textLength="178.6699" x="128.4463" y="114.0898">Open page &#8220;Project Catalogue&#8221;</text><rect fill="#F8F8FF" height="34.1328" rx="12.5" ry="12.5" style="stroke:#708090;stroke-width:0.5;" width="389.7656" x="16" y="146.6211"/><path d="M33,159.7539 L32,160.7539 L34,162.7539 L35,161.7539 L33,159.7539 M31,161.7539 L27,165.7539 L27,167.7539 L29,167.7539 L33,163.7539 L31,161.7539" fill="#000000"/><text fill="#000000" font-family="sans-serif" font-size="12" lengthAdjust="spacing" textLength="355.9688" x="39.7969" y="168.2227">Search &#8220;Projects&#8221; by &#8220;Project Title&#8221; or &#8220;Project Provider Name&#8221;</text><rect fill="#F8F8FF" height="34.1328" rx="12.5" ry="12.5" style="stroke:#708090;stroke-width:0.5;" width="282.1465" x="69.8096" y="200.7539"/><path d="M81.3096,213.8867 C81.0296,213.8867 80.8096,214.1067 80.8096,214.3867 C80.8096,214.6667 81.0296,214.8867 81.3096,214.8867 C81.5896,214.8867 81.8096,214.6667 81.8096,214.3867 C81.8096,214.1067 81.5896,213.8867 81.3096,213.8867 M82.8096,213.8867 L82.8096,214.8867 L88.8096,214.8867 L88.8096,213.8867 L82.8096,213.8867 M81.3096,215.8867 C81.0296,215.8867 80.8096,216.1067 80.8096,216.3867 C80.8096,216.6667 81.0296,216.8867 81.3096,216.8867 C81.5896,216.8867 81.8096,216.6667 81.8096,216.3867 C81.8096,216.1067 81.5896,215.8867 81.3096,215.8867 M82.8096,215.8867 L82.8096,216.8867 L88.8096,216.8867 L88.8096,215.8867 L82.8096,215.8867 M81.3096,217.8867 C81.0296,217.8867 80.8096,218.1067 80.8096,218.3867 C80.8096,218.6667 81.0296,218.8867 81.3096,218.8867 C81.5896,218.8867 81.8096,218.6667 81.8096,218.3867 C81.8096,218.1067 81.5896,217.8867 81.3096,217.8867 M82.8096,217.8867 L82.8096,218.8867 L88.8096,218.8867 L88.8096,217.8867 L82.8096,217.8867 M81.3096,219.8867 C81.0296,219.8867 80.8096,220.1067 80.8096,220.3867 C80.8096,220.6667 81.0296,220.8867 81.3096,220.8867 C81.5896,220.8867 81.8096,220.6667 81.8096,220.3867 C81.8096,220.1067 81.5896,219.8867 81.3096,219.8867 M82.8096,219.8867 L82.8096,220.8867 L88.8096,220.8867 L88.8096,219.8867 L82.8096,219.8867" fill="#000000"/><text fill="#000000" font-family="sans-serif" font-size="12" lengthAdjust="spacing" textLength="248.3496" x="93.6064" y="222.3555">Filter &#8220;Projects&#8221; by &#8220;Project Provider Name&#8221;</text><rect fill="#F8F8FF" height="34.1328" rx="12.5" ry="12.5" style="stroke:#708090;stroke-width:0.5;" width="193.8105" x="113.9775" y="254.8867"/><path d="M125.3175,268.0195 A0.5,0.5 0 0 0 124.9775,268.5195 L124.9775,275.5195 A0.5,0.5 0 0 0 125.4775,276.0195 L132.4775,276.0195 A0.5,0.5 0 0 0 132.9775,275.5195 L132.9775,268.5195 A0.5,0.5 0 0 0 132.4775,268.0195 L125.4775,268.0195 A0.5,0.5 0 0 0 125.3875,268.0195 A0.5,0.5 0 0 0 125.3275,268.0195 M126.4775,269.0195 C126.7575,269.0195 126.9775,269.2395 126.9775,269.5195 C126.9775,269.7995 126.7575,270.0195 126.4775,270.0195 C126.1975,270.0195 125.9775,269.7995 125.9775,269.5195 C125.9775,269.2395 126.1975,269.0195 126.4775,269.0195 M128.4775,269.0195 L131.4775,269.0195 C131.7575,269.0195 131.9775,269.2395 131.9775,269.5195 C131.9775,269.7995 131.7575,270.0195 131.4775,270.0195 L128.4775,270.0195 C128.1975,270.0195 127.9775,269.7995 127.9775,269.5195 C127.9775,269.2395 128.1975,269.0195 128.4775,269.0195 M125.9775,271.0195 L131.9775,271.0195 L131.9775,275.0195 L125.9775,275.0195 L125.9775,271.0195" fill="#000000"/><text fill="#000000" font-family="sans-serif" font-size="12" lengthAdjust="spacing" textLength="160.0137" x="137.7744" y="276.4883">Open page &#8220;Project Details&#8221;</text><rect fill="#F8F8FF" height="34.1328" rx="12.5" ry="12.5" style="stroke:#708090;stroke-width:0.5;" width="204.1875" x="108.7891" y="309.0195"/><path d="M123.8191,323.1523 C121.2891,323.1523 119.7891,326.1523 119.7891,326.1523 C119.7891,326.1523 121.2891,329.1523 123.8191,329.1523 C126.2891,329.1523 127.7891,326.1523 127.7891,326.1523 C127.7891,326.1523 126.2891,323.1523 123.8191,323.1523 M123.7891,324.1523 C124.8991,324.1523 125.7891,325.0523 125.7891,326.1523 C125.7891,327.2623 124.8991,328.1523 123.7891,328.1523 C122.6891,328.1523 121.7891,327.2623 121.7891,326.1523 C121.7891,325.0523 122.6891,324.1523 123.7891,324.1523 M123.7891,325.1523 C123.2391,325.1523 122.7891,325.6023 122.7891,326.1523 C122.7891,326.7023 123.2391,327.1523 123.7891,327.1523 C124.3391,327.1523 124.7891,326.7023 124.7891,326.1523 C124.7891,326.0523 124.7491,325.9623 124.7291,325.8723 C124.6491,326.0323 124.4891,326.1523 124.2891,326.1523 C124.0091,326.1523 123.7891,325.9323 123.7891,325.6523 C123.7891,325.4523 123.9091,325.2923 124.0691,325.2123 C123.9791,325.1823 123.8891,325.1523 123.7891,325.1523" fill="#000000"/><text fill="#000000" font-family="sans-serif" font-size="12" lengthAdjust="spacing" textLength="170.3906" x="132.5859" y="330.6211">Read &#8220;Project Provider Name&#8221;</text><rect fill="#F8F8FF" height="34.1328" rx="12.5" ry="12.5" style="stroke:#708090;stroke-width:0.5;" width="179.4199" x="121.1729" y="363.1523"/><path d="M136.2029,377.2852 C133.6729,377.2852 132.1729,380.2852 132.1729,380.2852 C132.1729,380.2852 133.6729,383.2852 136.2029,383.2852 C138.6729,383.2852 140.1729,380.2852 140.1729,380.2852 C140.1729,380.2852 138.6729,377.2852 136.2029,377.2852 M136.1729,378.2852 C137.2829,378.2852 138.1729,379.1852 138.1729,380.2852 C138.1729,381.3952 137.2829,382.2852 136.1729,382.2852 C135.0729,382.2852 134.1729,381.3952 134.1729,380.2852 C134.1729,379.1852 135.0729,378.2852 136.1729,378.2852 M136.1729,379.2852 C135.6229,379.2852 135.1729,379.7352 135.1729,380.2852 C135.1729,380.8352 135.6229,381.2852 136.1729,381.2852 C136.7229,381.2852 137.1729,380.8352 137.1729,380.2852 C137.1729,380.1852 137.1329,380.0952 137.1129,380.0052 C137.0329,380.1652 136.8729,380.2852 136.6729,380.2852 C136.3929,380.2852 136.1729,380.0652 136.1729,379.7852 C136.1729,379.5852 136.2929,379.4252 136.4529,379.3452 C136.3629,379.3152 136.2729,379.2852 136.1729,379.2852" fill="#000000"/><text fill="#000000" font-family="sans-serif" font-size="12" lengthAdjust="spacing" textLength="145.623" x="144.9697" y="384.7539">Read &#8220;Company Website&#8221;</text><rect fill="#F8F8FF" height="34.1328" rx="12.5" ry="12.5" style="stroke:#708090;stroke-width:0.5;" width="144.9668" x="138.3994" y="417.2852"/><path d="M153.4294,431.418 C150.8994,431.418 149.3994,434.418 149.3994,434.418 C149.3994,434.418 150.8994,437.418 153.4294,437.418 C155.8994,437.418 157.3994,434.418 157.3994,434.418 C157.3994,434.418 155.8994,431.418 153.4294,431.418 M153.3994,432.418 C154.5094,432.418 155.3994,433.318 155.3994,434.418 C155.3994,435.528 154.5094,436.418 153.3994,436.418 C152.2994,436.418 151.3994,435.528 151.3994,434.418 C151.3994,433.318 152.2994,432.418 153.3994,432.418 M153.3994,433.418 C152.8494,433.418 152.3994,433.868 152.3994,434.418 C152.3994,434.968 152.8494,435.418 153.3994,435.418 C153.9494,435.418 154.3994,434.968 154.3994,434.418 C154.3994,434.318 154.3594,434.228 154.3394,434.138 C154.2594,434.298 154.0994,434.418 153.8994,434.418 C153.6194,434.418 153.3994,434.198 153.3994,433.918 C153.3994,433.718 153.5194,433.558 153.6794,433.478 C153.5894,433.448 153.4994,433.418 153.3994,433.418" fill="#000000"/><text fill="#000000" font-family="sans-serif" font-size="12" lengthAdjust="spacing" textLength="111.1699" x="162.1963" y="438.8867">Read &#8220;Project Title&#8221;</text><rect fill="#F8F8FF" height="34.1328" rx="12.5" ry="12.5" style="stroke:#708090;stroke-width:0.5;" width="185.9121" x="117.9268" y="471.418"/><path d="M132.9568,485.5508 C130.4268,485.5508 128.9268,488.5508 128.9268,488.5508 C128.9268,488.5508 130.4268,491.5508 132.9568,491.5508 C135.4268,491.5508 136.9268,488.5508 136.9268,488.5508 C136.9268,488.5508 135.4268,485.5508 132.9568,485.5508 M132.9268,486.5508 C134.0368,486.5508 134.9268,487.4508 134.9268,488.5508 C134.9268,489.6608 134.0368,490.5508 132.9268,490.5508 C131.8268,490.5508 130.9268,489.6608 130.9268,488.5508 C130.9268,487.4508 131.8268,486.5508 132.9268,486.5508 M132.9268,487.5508 C132.3768,487.5508 131.9268,488.0008 131.9268,488.5508 C131.9268,489.1008 132.3768,489.5508 132.9268,489.5508 C133.4768,489.5508 133.9268,489.1008 133.9268,488.5508 C133.9268,488.4508 133.8868,488.3608 133.8668,488.2708 C133.7868,488.4308 133.6268,488.5508 133.4268,488.5508 C133.1468,488.5508 132.9268,488.3308 132.9268,488.0508 C132.9268,487.8508 133.0468,487.6908 133.2068,487.6108 C133.1168,487.5808 133.0268,487.5508 132.9268,487.5508" fill="#000000"/><text fill="#000000" font-family="sans-serif" font-size="12" lengthAdjust="spacing" textLength="152.1152" x="141.7236" y="493.0195">Read &#8220;Project Description&#8221;</text><rect fill="#F8F8FF" height="34.1328" rx="12.5" ry="12.5" style="stroke:#708090;stroke-width:0.5;" width="173.4375" x="124.1641" y="525.5508"/><path d="M139.1941,539.6836 C136.6641,539.6836 135.1641,542.6836 135.1641,542.6836 C135.1641,542.6836 136.6641,545.6836 139.1941,545.6836 C141.6641,545.6836 143.1641,542.6836 143.1641,542.6836 C143.1641,542.6836 141.6641,539.6836 139.1941,539.6836 M139.1641,540.6836 C140.2741,540.6836 141.1641,541.5836 141.1641,542.6836 C141.1641,543.7936 140.2741,544.6836 139.1641,544.6836 C138.0641,544.6836 137.1641,543.7936 137.1641,542.6836 C137.1641,541.5836 138.0641,540.6836 139.1641,540.6836 M139.1641,541.6836 C138.6141,541.6836 138.1641,542.1336 138.1641,542.6836 C138.1641,543.2336 138.6141,543.6836 139.1641,543.6836 C139.7141,543.6836 140.1641,543.2336 140.1641,542.6836 C140.1641,542.5836 140.1241,542.4936 140.1041,542.4036 C140.0241,542.5636 139.8641,542.6836 139.6641,542.6836 C139.3841,542.6836 139.1641,542.4636 139.1641,542.1836 C139.1641,541.9836 139.2841,541.8236 139.4441,541.7436 C139.3541,541.7136 139.2641,541.6836 139.1641,541.6836" fill="#000000"/><text fill="#000000" font-family="sans-serif" font-size="12" lengthAdjust="spacing" textLength="139.6406" x="147.9609" y="547.1523">Read &#8220;Student Capacity&#8221;</text><ellipse cx="210.8828" cy="590.6836" fill="none" rx="11" ry="11" style="stroke:#222222;stroke-width:1;"/><ellipse cx="210.8828" cy="590.6836" fill="#222222" rx="6" ry="6" style="stroke:#222222;stroke-width:1;"/><line style="stroke:#181818;stroke-width:1;" x1="210.8828" x2="210.8828" y1="72.4883" y2="92.4883"/><polygon fill="#181818" points="206.8828,82.4883,210.8828,92.4883,214.8828,82.4883,210.8828,86.4883" style="stroke:#181818;stroke-width:1;stroke-linejoin:miter;stroke-miterlimit:10;"/><line style="stroke:#181818;stroke-width:1;" x1="210.8828" x2="210.8828" y1="126.6211" y2="146.6211"/><polygon fill="#181818" points="206.8828,136.6211,210.8828,146.6211,214.8828,136.6211,210.8828,140.6211" style="stroke:#181818;stroke-width:1;stroke-linejoin:miter;stroke-miterlimit:10;"/><line style="stroke:#181818;stroke-width:1;" x1="210.8828" x2="210.8828" y1="180.7539" y2="200.7539"/><polygon fill="#181818" points="206.8828,190.7539,210.8828,200.7539,214.8828,190.7539,210.8828,194.7539" style="stroke:#181818;stroke-width:1;stroke-linejoin:miter;stroke-miterlimit:10;"/><line style="stroke:#181818;stroke-width:1;" x1="210.8828" x2="210.8828" y1="234.8867" y2="254.8867"/><polygon fill="#181818" points="206.8828,244.8867,210.8828,254.8867,214.8828,244.8867,210.8828,248.8867" style="stroke:#181818;stroke-width:1;stroke-linejoin:miter;stroke-miterlimit:10;"/><line style="stroke:#181818;stroke-width:1;" x1="210.8828" x2="210.8828" y1="289.0195" y2="309.0195"/><polygon fill="#181818" points="206.8828,299.0195,210.8828,309.0195,214.8828,299.0195,210.8828,303.0195" style="stroke:#181818;stroke-width:1;stroke-linejoin:miter;stroke-miterlimit:10;"/><line style="stroke:#181818;stroke-width:1;" x1="210.8828" x2="210.8828" y1="343.1523" y2="363.1523"/><polygon fill="#181818" points="206.8828,353.1523,210.8828,363.1523,214.8828,353.1523,210.8828,357.1523" style="stroke:#181818;stroke-width:1;stroke-linejoin:miter;stroke-miterlimit:10;"/><line style="stroke:#181818;stroke-width:1;" x1="210.8828" x2="210.8828" y1="397.2852" y2="417.2852"/><polygon fill="#181818" points="206.8828,407.2852,210.8828,417.2852,214.8828,407.2852,210.8828,411.2852" style="stroke:#181818;stroke-width:1;stroke-linejoin:miter;stroke-miterlimit:10;"/><line style="stroke:#181818;stroke-width:1;" x1="210.8828" x2="210.8828" y1="451.418" y2="471.418"/><polygon fill="#181818" points="206.8828,461.418,210.8828,471.418,214.8828,461.418,210.8828,465.418" style="stroke:#181818;stroke-width:1;stroke-linejoin:miter;stroke-miterlimit:10;"/><line style="stroke:#181818;stroke-width:1;" x1="210.8828" x2="210.8828" y1="505.5508" y2="525.5508"/><polygon fill="#181818" points="206.8828,515.5508,210.8828,525.5508,214.8828,515.5508,210.8828,519.5508" style="stroke:#181818;stroke-width:1;stroke-linejoin:miter;stroke-miterlimit:10;"/><line style="stroke:#181818;stroke-width:1;" x1="210.8828" x2="210.8828" y1="559.6836" y2="579.6836"/><polygon fill="#181818" points="206.8828,569.6836,210.8828,579.6836,214.8828,569.6836,210.8828,573.6836" style="stroke:#181818;stroke-width:1;stroke-linejoin:miter;stroke-miterlimit:10;"/><?plantuml-src fPDBRi8m48RtESLKbTeL5w0e2q1bKxKLL68z94FYudWiUm94Oi4XkcmlnqbgNcgeKDJ2AjRuz_VFApVMOLOWQAou5F052HgCH8ac63WkBRmwVgT4OBF-WAxZXQTZo4T-fen5XmNu75DUA9F15BMdw1xAPSjBfQareKoPcXGJKNCbLHUJMHOiJDfZpGu6ENiPvqhed9XTIcul76aK6ZYipkZw2WiswM_s4uLeBrVJAPk6LpMJFhhPW7LAPiXflHmoQHIjHbA6Arb5aHTqiXEqmM96i8B9harHktEtFxaONYoP_VLc_NbiQGy5DMSbRTPV3z3ftFwq88uFIA6bj4A-OJfrSC0bIiSm8dH9NeFwm899LRTvsqvp6mvbrSBXErUXNdZ6eYa3Jph85PkJ1BJo4iEZqaAksVwlFlziNZ-igjA-0UW8qnCWLHJ3S1kz8BrcMeyBYwQ2CKryU7LrLiUPNKVfaq-SijlXNSmwR7fOLej9-5VEWhom_GO0?></g></svg>