<svg xmlns="http://www.w3.org/2000/svg" xmlns:xlink="http://www.w3.org/1999/xlink" contentStyleType="text/css" data-diagram-type="ACTIVITY" height="440px" preserveAspectRatio="none" style="width:1267px;height:440px;background:#FFFFFF;" version="1.1" viewBox="0 0 1267 440" width="1267px" zoomAndPan="magnify"><?plantuml 1.2026.6?><defs/><g><g class="title" data-source-line="2"><text fill="#000000" font-family="sans-serif" font-size="14" font-weight="700" lengthAdjust="spacing" textLength="324.3721" x="470.5728" y="33.5352">Industrial Placement &#8212; Correction Validation</text></g><rect fill="none" height="21.1992" style="stroke:none;stroke-width:1;" width="1220.5176" x="20" y="54.7852"/><rect fill="#F8F8FF" height="34.1328" rx="12.5" ry="12.5" style="stroke:#708090;stroke-width:0.5;" width="290.7949" x="26" y="273.25"/><path d="M37.34,286.3828 A0.5,0.5 0 0 0 37,286.8828 L37,293.8828 A0.5,0.5 0 0 0 37.5,294.3828 L44.5,294.3828 A0.5,0.5 0 0 0 45,293.8828 L45,286.8828 A0.5,0.5 0 0 0 44.5,286.3828 L37.5,286.3828 A0.5,0.5 0 0 0 37.41,286.3828 A0.5,0.5 0 0 0 37.35,286.3828 M38.5,287.3828 C38.78,287.3828 39,287.6028 39,287.8828 C39,288.1628 38.78,288.3828 38.5,288.3828 C38.22,288.3828 38,288.1628 38,287.8828 C38,287.6028 38.22,287.3828 38.5,287.3828 M40.5,287.3828 L43.5,287.3828 C43.78,287.3828 44,287.6028 44,287.8828 C44,288.1628 43.78,288.3828 43.5,288.3828 L40.5,288.3828 C40.22,288.3828 40,288.1628 40,287.8828 C40,287.6028 40.22,287.3828 40.5,287.3828 M38,289.3828 L44,289.3828 L44,293.3828 L38,293.3828 L38,289.3828" fill="#000000"/><text fill="#000000" font-family="sans-serif" font-size="12" lengthAdjust="spacing" textLength="256.998" x="49.7969" y="294.8516">Open page &#8220;Resubmitted Placement Record&#8221;</text><rect fill="#F8F8FF" height="34.1328" rx="12.5" ry="12.5" style="stroke:#708090;stroke-width:0.5;" width="274.1602" x="34.3174" y="327.3828"/><path d="M45.6574,340.5156 A0.5,0.5 0 0 0 45.3174,341.0156 L45.3174,348.0156 A0.5,0.5 0 0 0 45.8174,348.5156 L52.8174,348.5156 A0.5,0.5 0 0 0 53.3174,348.0156 L53.3174,341.0156 A0.5,0.5 0 0 0 52.8174,340.5156 L45.8174,340.5156 A0.5,0.5 0 0 0 45.7274,340.5156 A0.5,0.5 0 0 0 45.6674,340.5156 M46.8174,341.5156 C47.0974,341.5156 47.3174,341.7356 47.3174,342.0156 C47.3174,342.2956 47.0974,342.5156 46.8174,342.5156 C46.5374,342.5156 46.3174,342.2956 46.3174,342.0156 C46.3174,341.7356 46.5374,341.5156 46.8174,341.5156 M48.8174,341.5156 L51.8174,341.5156 C52.0974,341.5156 52.3174,341.7356 52.3174,342.0156 C52.3174,342.2956 52.0974,342.5156 51.8174,342.5156 L48.8174,342.5156 C48.5374,342.5156 48.3174,342.2956 48.3174,342.0156 C48.3174,341.7356 48.5374,341.5156 48.8174,341.5156 M46.3174,343.5156 L52.3174,343.5156 L52.3174,347.5156 L46.3174,347.5156 L46.3174,343.5156" fill="#000000"/><text fill="#000000" font-family="sans-serif" font-size="12" lengthAdjust="spacing" textLength="240.3633" x="58.1143" y="348.9844">Open page &#8220;Corrected Placement Details&#8221;</text><ellipse cx="171.3975" cy="392.5156" fill="none" rx="11" ry="11" style="stroke:#222222;stroke-width:1;"/><ellipse cx="171.3975" cy="392.5156" fill="#222222" rx="6" ry="6" style="stroke:#222222;stroke-width:1;"/><line style="stroke:#000000;stroke-width:1.5;" x1="20" x2="20" y1="54.7852" y2="419.5156"/><ellipse cx="612.0464" cy="90.9844" fill="#222222" rx="10" ry="10" style="stroke:#222222;stroke-width:1;"/><polygon fill="#FFFACD" points="534.332,120.9844,689.7607,120.9844,701.7607,132.9844,689.7607,144.9844,534.332,144.9844,522.332,132.9844,534.332,120.9844" style="stroke:#B8860B;stroke-width:0.5;stroke-linejoin:miter;stroke-miterlimit:10;"/><text fill="#000000" font-family="sans-serif" font-size="11" lengthAdjust="spacing" textLength="155.4287" x="534.332" y="137.1416">Validate corrected placement</text><text fill="#000000" font-family="sans-serif" font-size="11" lengthAdjust="spacing" textLength="59.1304" x="463.2017" y="130.6641">Incomplete</text><text fill="#000000" font-family="sans-serif" font-size="11" lengthAdjust="spacing" textLength="51.1113" x="701.7607" y="130.6641">Complete</text><rect fill="#F0FFF0" height="34.1328" rx="12.5" ry="12.5" style="stroke:#708090;stroke-width:0.5;" width="239.4434" x="326.7949" y="164.9844"/><path d="M341.2949,178.1172 L340.7949,179.3072 C340.6949,179.3372 340.6049,179.3872 340.5149,179.4372 L339.3249,178.9372 L338.6049,179.6572 L339.1049,180.8472 C339.0549,180.9472 339.0149,181.0272 338.9749,181.1272 L337.7849,181.6272 L337.7849,182.6272 L338.9749,183.1272 C339.0149,183.2272 339.0549,183.3072 339.1049,183.4072 L338.6049,184.5972 L339.3249,185.3172 L340.5149,184.8172 C340.6049,184.8572 340.6949,184.9072 340.7949,184.9472 L341.2949,186.1372 L342.2949,186.1372 L342.7949,184.9472 C342.8849,184.9072 342.9849,184.8672 343.0749,184.8172 L344.2649,185.3172 L344.9849,184.5972 L344.4849,183.4072 C344.5249,183.3172 344.5749,183.2172 344.6149,183.1272 L345.8049,182.6272 L345.8049,181.6272 L344.6149,181.1272 C344.5849,181.0372 344.5349,180.9372 344.4849,180.8472 L344.9849,179.6572 L344.2649,178.9372 L343.0749,179.4372 C342.9849,179.3972 342.8849,179.3472 342.7949,179.3072 L342.2949,178.1172 L341.2949,178.1172 M341.7949,180.6172 C342.6249,180.6172 343.2949,181.2872 343.2949,182.1172 C343.2949,182.9472 342.6249,183.6172 341.7949,183.6172 C340.9649,183.6172 340.2949,182.9472 340.2949,182.1172 C340.2949,181.2872 340.9649,180.6172 341.7949,180.6172" fill="#000000"/><text fill="#000000" font-family="sans-serif" font-size="12" lengthAdjust="spacing" textLength="205.6465" x="350.5918" y="186.5859">Show &#8220;Correction Validation Errors&#8221;</text><rect fill="#F0FFF0" height="34.1328" rx="12.5" ry="12.5" style="stroke:#708090;stroke-width:0.5;" width="298.8516" x="628.1504" y="164.9844"/><path d="M642.6504,178.1172 L642.1504,179.3072 C642.0504,179.3372 641.9604,179.3872 641.8704,179.4372 L640.6804,178.9372 L639.9604,179.6572 L640.4604,180.8472 C640.4104,180.9472 640.3704,181.0272 640.3304,181.1272 L639.1404,181.6272 L639.1404,182.6272 L640.3304,183.1272 C640.3704,183.2272 640.4104,183.3072 640.4604,183.4072 L639.9604,184.5972 L640.6804,185.3172 L641.8704,184.8172 C641.9604,184.8572 642.0504,184.9072 642.1504,184.9472 L642.6504,186.1372 L643.6504,186.1372 L644.1504,184.9472 C644.2404,184.9072 644.3404,184.8672 644.4304,184.8172 L645.6204,185.3172 L646.3404,184.5972 L645.8404,183.4072 C645.8804,183.3172 645.9304,183.2172 645.9704,183.1272 L647.1604,182.6272 L647.1604,181.6272 L645.9704,181.1272 C645.9404,181.0372 645.8904,180.9372 645.8404,180.8472 L646.3404,179.6572 L645.6204,178.9372 L644.4304,179.4372 C644.3404,179.3972 644.2404,179.3472 644.1504,179.3072 L643.6504,178.1172 L642.6504,178.1172 M643.1504,180.6172 C643.9804,180.6172 644.6504,181.2872 644.6504,182.1172 C644.6504,182.9472 643.9804,183.6172 643.1504,183.6172 C642.3204,183.6172 641.6504,182.9472 641.6504,182.1172 C641.6504,181.2872 642.3204,180.6172 643.1504,180.6172" fill="#000000"/><text fill="#000000" font-family="sans-serif" font-size="12" lengthAdjust="spacing" textLength="265.0547" x="651.9473" y="186.5859">Set &#8220;Placement Status&#8221; to &#8220;Awaiting Approval&#8221;</text><rect fill="#E6E6FA" height="34.1328" rx="12.5" ry="12.5" style="stroke:#708090;stroke-width:0.5;" width="350.0508" x="602.5508" y="219.1172"/><path d="M613.5508,233.25 L613.5508,234.25 L617.5508,236.25 L621.5508,234.25 L621.5508,233.25 L613.5508,233.25 M613.5508,235.25 L613.5508,239.25 L621.5508,239.25 L621.5508,235.25 L617.5508,237.25 L613.5508,235.25" fill="#000000"/><text fill="#000000" font-family="sans-serif" font-size="12" lengthAdjust="spacing" textLength="316.2539" x="626.3477" y="240.7188">Email resubmission notice to current IP Team reviewer</text><line style="stroke:#000000;stroke-width:1.5;" x1="320.7949" x2="320.7949" y1="54.7852" y2="419.5156"/><rect fill="#F8F8FF" height="34.1328" rx="12.5" ry="12.5" style="stroke:#708090;stroke-width:0.5;" width="272.0684" x="962.6016" y="219.1172"/><path d="M973.9416,232.25 A0.5,0.5 0 0 0 973.6016,232.75 L973.6016,239.75 A0.5,0.5 0 0 0 974.1016,240.25 L981.1016,240.25 A0.5,0.5 0 0 0 981.6016,239.75 L981.6016,232.75 A0.5,0.5 0 0 0 981.1016,232.25 L974.1016,232.25 A0.5,0.5 0 0 0 974.0116,232.25 A0.5,0.5 0 0 0 973.9516,232.25 M975.1016,233.25 C975.3816,233.25 975.6016,233.47 975.6016,233.75 C975.6016,234.03 975.3816,234.25 975.1016,234.25 C974.8216,234.25 974.6016,234.03 974.6016,233.75 C974.6016,233.47 974.8216,233.25 975.1016,233.25 M977.1016,233.25 L980.1016,233.25 C980.3816,233.25 980.6016,233.47 980.6016,233.75 C980.6016,234.03 980.3816,234.25 980.1016,234.25 L977.1016,234.25 C976.8216,234.25 976.6016,234.03 976.6016,233.75 C976.6016,233.47 976.8216,233.25 977.1016,233.25 M974.6016,235.25 L980.6016,235.25 L980.6016,239.25 L974.6016,239.25 L974.6016,235.25" fill="#000000"/><text fill="#000000" font-family="sans-serif" font-size="12" lengthAdjust="spacing" textLength="238.2715" x="986.3984" y="240.7188">Open page &#8220;Correction Validation Errors&#8221;</text><ellipse cx="1098.6357" cy="284.25" fill="none" rx="11" ry="11" style="stroke:#222222;stroke-width:1;"/><ellipse cx="1098.6357" cy="284.25" fill="#222222" rx="6" ry="6" style="stroke:#222222;stroke-width:1;"/><line style="stroke:#000000;stroke-width:1.5;" x1="956.6016" x2="956.6016" y1="54.7852" y2="419.5156"/><line style="stroke:#000000;stroke-width:1.5;" x1="1238.6699" x2="1238.6699" y1="54.7852" y2="419.5156"/><line style="stroke:#181818;stroke-width:1;" x1="171.3975" x2="171.3975" y1="307.3828" y2="327.3828"/><polygon fill="#181818" points="167.3975,317.3828,171.3975,327.3828,175.3975,317.3828,171.3975,321.3828" style="stroke:#181818;stroke-width:1;stroke-linejoin:miter;stroke-miterlimit:10;"/><line style="stroke:#181818;stroke-width:1;" x1="171.3975" x2="171.3975" y1="361.5156" y2="381.5156"/><polygon fill="#181818" points="167.3975,371.5156,171.3975,381.5156,175.3975,371.5156,171.3975,375.5156" style="stroke:#181818;stroke-width:1;stroke-linejoin:miter;stroke-miterlimit:10;"/><line style="stroke:#181818;stroke-width:1;" x1="777.5762" x2="777.5762" y1="199.1172" y2="219.1172"/><polygon fill="#181818" points="773.5762,209.1172,777.5762,219.1172,781.5762,209.1172,777.5762,213.1172" style="stroke:#181818;stroke-width:1;stroke-linejoin:miter;stroke-miterlimit:10;"/><line style="stroke:#181818;stroke-width:1;" x1="522.332" x2="446.5166" y1="132.9844" y2="132.9844"/><line style="stroke:#181818;stroke-width:1;" x1="446.5166" x2="446.5166" y1="132.9844" y2="164.9844"/><polygon fill="#181818" points="442.5166,154.9844,446.5166,164.9844,450.5166,154.9844,446.5166,158.9844" style="stroke:#181818;stroke-width:1;stroke-linejoin:miter;stroke-miterlimit:10;"/><line style="stroke:#181818;stroke-width:1;" x1="701.7607" x2="777.5762" y1="132.9844" y2="132.9844"/><line style="stroke:#181818;stroke-width:1;" x1="777.5762" x2="777.5762" y1="132.9844" y2="164.9844"/><polygon fill="#181818" points="773.5762,154.9844,777.5762,164.9844,781.5762,154.9844,777.5762,158.9844" style="stroke:#181818;stroke-width:1;stroke-linejoin:miter;stroke-miterlimit:10;"/><line style="stroke:#181818;stroke-width:1;" x1="612.0464" x2="612.0464" y1="100.9844" y2="120.9844"/><polygon fill="#181818" points="608.0464,110.9844,612.0464,120.9844,616.0464,110.9844,612.0464,114.9844" style="stroke:#181818;stroke-width:1;stroke-linejoin:miter;stroke-miterlimit:10;"/><line style="stroke:#181818;stroke-width:1;" x1="1098.6357" x2="1098.6357" y1="253.25" y2="273.25"/><polygon fill="#181818" points="1094.6357,263.25,1098.6357,273.25,1102.6357,263.25,1098.6357,267.25" style="stroke:#181818;stroke-width:1;stroke-linejoin:miter;stroke-miterlimit:10;"/><line style="stroke:#181818;stroke-width:1;" x1="446.5166" x2="446.5166" y1="199.1172" y2="204.1172"/><line style="stroke:#181818;stroke-width:1;" x1="446.5166" x2="1098.6357" y1="204.1172" y2="204.1172"/><line style="stroke:#181818;stroke-width:1;" x1="1098.6357" x2="1098.6357" y1="204.1172" y2="219.1172"/><polygon fill="#181818" points="1094.6357,209.1172,1098.6357,219.1172,1102.6357,209.1172,1098.6357,213.1172" style="stroke:#181818;stroke-width:1;stroke-linejoin:miter;stroke-miterlimit:10;"/><line style="stroke:#181818;stroke-width:1;" x1="777.5762" x2="777.5762" y1="253.25" y2="258.25"/><line style="stroke:#181818;stroke-width:1;" x1="777.5762" x2="171.3975" y1="258.25" y2="258.25"/><line style="stroke:#181818;stroke-width:1;" x1="171.3975" x2="171.3975" y1="258.25" y2="273.25"/><polygon fill="#181818" points="167.3975,263.25,171.3975,273.25,175.3975,263.25,171.3975,267.25" style="stroke:#181818;stroke-width:1;stroke-linejoin:miter;stroke-miterlimit:10;"/><text fill="#000000" font-family="sans-serif" font-size="18" lengthAdjust="spacing" textLength="68.9854" x="135.9048" y="72.1875">IP Team</text><text fill="#000000" font-family="sans-serif" font-size="18" lengthAdjust="spacing" textLength="35.0771" x="621.1597" y="72.1875">App</text><text fill="#000000" font-family="sans-serif" font-size="18" lengthAdjust="spacing" textLength="66.8584" x="1064.2065" y="72.1875">Student</text><?plantuml-src dLJ1Qjj04BthAwO4MkVW7qYD8RM3QmWqsAKzZxKZQV7kZjWTIHNea8_eCVsvV4bNabCxnGrfBcArUZDlvhs7tfKUSujWiELA85WIT9Y85aEmTgeAuZKQk3EOaYKdy7Z_4nRiFQMYsS4tD5fXVqp2NhiIFLe81IfkjCiXGnCe-G3LZscGrj1qHxa-XM9iKsjfFs6wpprNJYtOi8TLmK6-5rhe79Yz8Zy2jmQ5LXxRCxYbHijE_TtxbkBjej1Pnkw5gXEI9VhzYeqYjs5rkWuvbIJT-Ww-4jekwQxBCZwtKaMeTCdX8WXwING6auDS1Eae8IaedwIz12d8mMJjKhQb8Q7B1A0dkuBG1Y4B7M0bR4Uz0QvcxrFEvx0jk8d6F9pr1MwyPnyUxtzzXDdiuZCxQfVKpEUnmN7I9w8ISueqEyzDD6wW6Cz-3b_AEDu0U2NNqSI1BGYN2SL0m6Hnik6eqIitfJw13ySuRWMbwWb1kFzotQ2MFdcngUSQpTczHoh7eZETZfDtprv7Id8r6IvfcXeEfEPmOr4Ry1IgdTKXz7LzLKezUrf5HU98XpH4MAsf8J_Gts8Tin9L76J_4vZ_bdqpSakVdACA6ufvKl-G_Mt6Fkk_ZBy5RLxsrIcT_GO0?></g></svg>