<svg xmlns="http://www.w3.org/2000/svg" xmlns:xlink="http://www.w3.org/1999/xlink" contentStyleType="text/css" data-diagram-type="ACTIVITY" height="351px" preserveAspectRatio="none" style="width:362px;height:351px;background:#FFFFFF;" version="1.1" viewBox="0 0 362 351" width="362px" zoomAndPan="magnify"><?plantuml 1.2026.6?><defs/><g><g class="title" data-source-line="2"><text fill="#000000" font-family="sans-serif" font-size="14" font-weight="700" lengthAdjust="spacing" textLength="320.3936" x="20" y="33.5352">Industrial Placement &#8212; Placement Discovery</text></g><ellipse cx="179.1968" cy="62.4883" fill="#222222" rx="10" ry="10" style="stroke:#222222;stroke-width:1;"/><rect fill="#F8F8FF" height="34.1328" rx="12.5" ry="12.5" style="stroke:#708090;stroke-width:0.5;" width="229.8105" x="64.2915" y="92.4883"/><path d="M75.6315,105.6211 A0.5,0.5 0 0 0 75.2915,106.1211 L75.2915,113.1211 A0.5,0.5 0 0 0 75.7915,113.6211 L82.7915,113.6211 A0.5,0.5 0 0 0 83.2915,113.1211 L83.2915,106.1211 A0.5,0.5 0 0 0 82.7915,105.6211 L75.7915,105.6211 A0.5,0.5 0 0 0 75.7015,105.6211 A0.5,0.5 0 0 0 75.6415,105.6211 M76.7915,106.6211 C77.0715,106.6211 77.2915,106.8411 77.2915,107.1211 C77.2915,107.4011 77.0715,107.6211 76.7915,107.6211 C76.5115,107.6211 76.2915,107.4011 76.2915,107.1211 C76.2915,106.8411 76.5115,106.6211 76.7915,106.6211 M78.7915,106.6211 L81.7915,106.6211 C82.0715,106.6211 82.2915,106.8411 82.2915,107.1211 C82.2915,107.4011 82.0715,107.6211 81.7915,107.6211 L78.7915,107.6211 C78.5115,107.6211 78.2915,107.4011 78.2915,107.1211 C78.2915,106.8411 78.5115,106.6211 78.7915,106.6211 M76.2915,108.6211 L82.2915,108.6211 L82.2915,112.6211 L76.2915,112.6211 L76.2915,108.6211" fill="#000000"/><text fill="#000000" font-family="sans-serif" font-size="12" lengthAdjust="spacing" textLength="196.0137" x="88.0884" y="114.0898">Open page &#8220;Placement catalogue&#8221;</text><rect fill="#F8F8FF" height="34.1328" rx="12.5" ry="12.5" style="stroke:#708090;stroke-width:0.5;" width="182.5664" x="87.9136" y="146.6211"/><path d="M104.9136,159.7539 L103.9136,160.7539 L105.9136,162.7539 L106.9136,161.7539 L104.9136,159.7539 M102.9136,161.7539 L98.9136,165.7539 L98.9136,167.7539 L100.9136,167.7539 L104.9136,163.7539 L102.9136,161.7539" fill="#000000"/><text fill="#000000" font-family="sans-serif" font-size="12" lengthAdjust="spacing" textLength="148.7695" x="111.7104" y="168.2227">Search placement adverts</text><rect fill="#F8F8FF" height="34.1328" rx="12.5" ry="12.5" style="stroke:#708090;stroke-width:0.5;" width="173.7422" x="92.3257" y="200.7539"/><path d="M103.8257,213.8867 C103.5457,213.8867 103.3257,214.1067 103.3257,214.3867 C103.3257,214.6667 103.5457,214.8867 103.8257,214.8867 C104.1057,214.8867 104.3257,214.6667 104.3257,214.3867 C104.3257,214.1067 104.1057,213.8867 103.8257,213.8867 M105.3257,213.8867 L105.3257,214.8867 L111.3257,214.8867 L111.3257,213.8867 L105.3257,213.8867 M103.8257,215.8867 C103.5457,215.8867 103.3257,216.1067 103.3257,216.3867 C103.3257,216.6667 103.5457,216.8867 103.8257,216.8867 C104.1057,216.8867 104.3257,216.6667 104.3257,216.3867 C104.3257,216.1067 104.1057,215.8867 103.8257,215.8867 M105.3257,215.8867 L105.3257,216.8867 L111.3257,216.8867 L111.3257,215.8867 L105.3257,215.8867 M103.8257,217.8867 C103.5457,217.8867 103.3257,218.1067 103.3257,218.3867 C103.3257,218.6667 103.5457,218.8867 103.8257,218.8867 C104.1057,218.8867 104.3257,218.6667 104.3257,218.3867 C104.3257,218.1067 104.1057,217.8867 103.8257,217.8867 M105.3257,217.8867 L105.3257,218.8867 L111.3257,218.8867 L111.3257,217.8867 L105.3257,217.8867 M103.8257,219.8867 C103.5457,219.8867 103.3257,220.1067 103.3257,220.3867 C103.3257,220.6667 103.5457,220.8867 103.8257,220.8867 C104.1057,220.8867 104.3257,220.6667 104.3257,220.3867 C104.3257,220.1067 104.1057,219.8867 103.8257,219.8867 M105.3257,219.8867 L105.3257,220.8867 L111.3257,220.8867 L111.3257,219.8867 L105.3257,219.8867" fill="#000000"/><text fill="#000000" font-family="sans-serif" font-size="12" lengthAdjust="spacing" textLength="139.9453" x="116.1226" y="222.3555">Filter placement adverts</text><rect fill="#F8F8FF" height="34.1328" rx="12.5" ry="12.5" style="stroke:#708090;stroke-width:0.5;" width="209.9414" x="74.2261" y="254.8867"/><path d="M85.5661,268.0195 A0.5,0.5 0 0 0 85.2261,268.5195 L85.2261,275.5195 A0.5,0.5 0 0 0 85.7261,276.0195 L92.7261,276.0195 A0.5,0.5 0 0 0 93.2261,275.5195 L93.2261,268.5195 A0.5,0.5 0 0 0 92.7261,268.0195 L85.7261,268.0195 A0.5,0.5 0 0 0 85.6361,268.0195 A0.5,0.5 0 0 0 85.5761,268.0195 M86.7261,269.0195 C87.0061,269.0195 87.2261,269.2395 87.2261,269.5195 C87.2261,269.7995 87.0061,270.0195 86.7261,270.0195 C86.4461,270.0195 86.2261,269.7995 86.2261,269.5195 C86.2261,269.2395 86.4461,269.0195 86.7261,269.0195 M88.7261,269.0195 L91.7261,269.0195 C92.0061,269.0195 92.2261,269.2395 92.2261,269.5195 C92.2261,269.7995 92.0061,270.0195 91.7261,270.0195 L88.7261,270.0195 C88.4461,270.0195 88.2261,269.7995 88.2261,269.5195 C88.2261,269.2395 88.4461,269.0195 88.7261,269.0195 M86.2261,271.0195 L92.2261,271.0195 L92.2261,275.0195 L86.2261,275.0195 L86.2261,271.0195" fill="#000000"/><text fill="#000000" font-family="sans-serif" font-size="12" lengthAdjust="spacing" textLength="176.1445" x="98.0229" y="276.4883">Open page &#8220;Placement advert&#8221;</text><ellipse cx="179.1968" cy="320.0195" fill="none" rx="11" ry="11" style="stroke:#222222;stroke-width:1;"/><ellipse cx="179.1968" cy="320.0195" fill="#222222" rx="6" ry="6" style="stroke:#222222;stroke-width:1;"/><line style="stroke:#181818;stroke-width:1;" x1="179.1968" x2="179.1968" y1="72.4883" y2="92.4883"/><polygon fill="#181818" points="175.1968,82.4883,179.1968,92.4883,183.1968,82.4883,179.1968,86.4883" style="stroke:#181818;stroke-width:1;stroke-linejoin:miter;stroke-miterlimit:10;"/><line style="stroke:#181818;stroke-width:1;" x1="179.1968" x2="179.1968" y1="126.6211" y2="146.6211"/><polygon fill="#181818" points="175.1968,136.6211,179.1968,146.6211,183.1968,136.6211,179.1968,140.6211" style="stroke:#181818;stroke-width:1;stroke-linejoin:miter;stroke-miterlimit:10;"/><line style="stroke:#181818;stroke-width:1;" x1="179.1968" x2="179.1968" y1="180.7539" y2="200.7539"/><polygon fill="#181818" points="175.1968,190.7539,179.1968,200.7539,183.1968,190.7539,179.1968,194.7539" style="stroke:#181818;stroke-width:1;stroke-linejoin:miter;stroke-miterlimit:10;"/><line style="stroke:#181818;stroke-width:1;" x1="179.1968" x2="179.1968" y1="234.8867" y2="254.8867"/><polygon fill="#181818" points="175.1968,244.8867,179.1968,254.8867,183.1968,244.8867,179.1968,248.8867" style="stroke:#181818;stroke-width:1;stroke-linejoin:miter;stroke-miterlimit:10;"/><line style="stroke:#181818;stroke-width:1;" x1="179.1968" x2="179.1968" y1="289.0195" y2="309.0195"/><polygon fill="#181818" points="175.1968,299.0195,179.1968,309.0195,183.1968,299.0195,179.1968,303.0195" style="stroke:#181818;stroke-width:1;stroke-linejoin:miter;stroke-miterlimit:10;"/><?plantuml-src bP71JiCm38RlVGeZ93Zj1SRK0vkOa910xC3PIzmsMXfNZhkjqWvx28xmSdiI8efOGGF1BOv_Vyd_-wmHB6i4Znst2h4cnO2PElK4jy6sKSMXXmUFXceA2eVzyw2QkMXuJT9bSUL2Wu8rn0ejRrmeeK0VARk4TZkAsdaQBQbqOI15esxjjBj6iog5ss2dx5bWNd7KfyefdHApM99UkF2eD1ViJkXc3ciEzZlxZjBjj795mU6NgS4ZCvJLdBsbyCXsQ8U2pRBTGjlKqbsMHKNHTy4O6Ym9Th0KtgGCnfEB_YGvt3SK-lPX_tACqg2YvxAbm_xr2YQJysC8UVu1LThgAFquhMg8Ja3ZV0uBGZ4LD9zCj6at6d_2HVAKR7FuGlCkQWutpYl9trd_zjlpJfgDoiqR?></g></svg>